solid 2-distributor
facet normal 0.0 0.0 1.0
  outer loop
    vertex 271.45751243819166 122.37557345726073 68.038051
    vertex 271.45751243819166 124.93788200377568 68.038051
    vertex 271.2888452783226 123.65672773051823 68.038051
  endloop
endfacet
facet normal 0.0 0.0 1.0
  outer loop
    vertex 271.45751243819166 124.93788200377568 68.038051
    vertex 271.45751243819166 122.37557345726073 68.038051
    vertex 271.95201952958956 121.1817277305182 68.038051
  endloop
endfacet
facet normal 0.0 0.0 1.0
  outer loop
    vertex 271.45751243819166 124.93788200377568 68.038051
    vertex 271.95201952958956 121.1817277305182 68.038051
    vertex 271.95201952958956 126.13172773051821 68.038051
  endloop
endfacet
facet normal 0.0 0.0 1.0
  outer loop
    vertex 271.95201952958956 126.13172773051821 68.038051
    vertex 271.95201952958956 121.1817277305182 68.038051
    vertex 272.7386667114492 120.1565491636448 68.038051
  endloop
endfacet
facet normal 0.0 0.0 1.0
  outer loop
    vertex 271.95201952958956 126.13172773051821 68.038051
    vertex 272.7386667114492 120.1565491636448 68.038051
    vertex 272.7386667114492 127.15690629739161 68.038051
  endloop
endfacet
facet normal 0.0 0.0 1.0
  outer loop
    vertex 272.7386667114492 127.15690629739161 68.038051
    vertex 272.7386667114492 120.1565491636448 68.038051
    vertex 273.7638452783226 119.36990198178525 68.038051
  endloop
endfacet
facet normal 0.0 0.0 1.0
  outer loop
    vertex 272.7386667114492 127.15690629739161 68.038051
    vertex 273.7638452783226 119.36990198178525 68.038051
    vertex 273.7638452783226 127.94355347925116 68.038051
  endloop
endfacet
facet normal 0.0 0.0 1.0
  outer loop
    vertex 273.7638452783226 127.94355347925116 68.038051
    vertex 273.7638452783226 119.36990198178525 68.038051
    vertex 274.9576910050651 118.87539489038734 68.038051
  endloop
endfacet
facet normal 0.0 0.0 1.0
  outer loop
    vertex 273.7638452783226 127.94355347925116 68.038051
    vertex 274.9576910050651 118.87539489038734 68.038051
    vertex 274.9576910050651 128.43806057064913 68.038051
  endloop
endfacet
facet normal 0.0 0.0 1.0
  outer loop
    vertex 274.9576910050651 128.43806057064913 68.038051
    vertex 274.9576910050651 118.87539489038734 68.038051
    vertex 276.2388452783226 128.60672773051823 68.038051
  endloop
endfacet
facet normal 0.0 0.0 1.0
  outer loop
    vertex 276.2388452783226 128.60672773051823 68.038051
    vertex 274.9576910050651 118.87539489038734 68.038051
    vertex 276.2388452783226 118.70672773051822 68.038051
  endloop
endfacet
facet normal 0.0 0.0 1.0
  outer loop
    vertex 276.2388452783226 128.60672773051823 68.038051
    vertex 276.2388452783226 118.70672773051822 68.038051
    vertex 277.5199995515801 118.87539489038734 68.038051
  endloop
endfacet
facet normal 0.0 0.0 1.0
  outer loop
    vertex 276.2388452783226 128.60672773051823 68.038051
    vertex 277.5199995515801 118.87539489038734 68.038051
    vertex 277.5199995515801 128.43806057064913 68.038051
  endloop
endfacet
facet normal 0.0 0.0 1.0
  outer loop
    vertex 277.5199995515801 128.43806057064913 68.038051
    vertex 277.5199995515801 118.87539489038734 68.038051
    vertex 278.7138452783226 119.36990198178525 68.038051
  endloop
endfacet
facet normal 0.0 0.0 1.0
  outer loop
    vertex 277.5199995515801 128.43806057064913 68.038051
    vertex 278.7138452783226 119.36990198178525 68.038051
    vertex 278.71384527832254 127.94355347925116 68.038051
  endloop
endfacet
facet normal 0.0 0.0 1.0
  outer loop
    vertex 278.71384527832254 127.94355347925116 68.038051
    vertex 278.7138452783226 119.36990198178525 68.038051
    vertex 279.73902384519596 127.15690629739161 68.038051
  endloop
endfacet
facet normal 0.0 0.0 1.0
  outer loop
    vertex 279.73902384519596 127.15690629739161 68.038051
    vertex 278.7138452783226 119.36990198178525 68.038051
    vertex 279.73902384519596 120.1565491636448 68.038051
  endloop
endfacet
facet normal 0.0 0.0 1.0
  outer loop
    vertex 279.73902384519596 127.15690629739161 68.038051
    vertex 279.73902384519596 120.1565491636448 68.038051
    vertex 280.5256710270556 121.1817277305182 68.038051
  endloop
endfacet
facet normal 0.0 0.0 1.0
  outer loop
    vertex 279.73902384519596 127.15690629739161 68.038051
    vertex 280.5256710270556 121.1817277305182 68.038051
    vertex 280.5256710270556 126.13172773051821 68.038051
  endloop
endfacet
facet normal 0.0 0.0 1.0
  outer loop
    vertex 280.5256710270556 126.13172773051821 68.038051
    vertex 280.5256710270556 121.1817277305182 68.038051
    vertex 281.0201781184535 122.37557345726073 68.038051
  endloop
endfacet
facet normal 0.0 0.0 1.0
  outer loop
    vertex 280.5256710270556 126.13172773051821 68.038051
    vertex 281.0201781184535 122.37557345726073 68.038051
    vertex 281.0201781184535 124.93788200377568 68.038051
  endloop
endfacet
facet normal 0.0 0.0 1.0
  outer loop
    vertex 281.0201781184535 124.93788200377568 68.038051
    vertex 281.0201781184535 122.37557345726073 68.038051
    vertex 281.18884527832256 123.65672773051823 68.038051
  endloop
endfacet
facet normal -0.0 -1.0 -0.0
  outer loop
    vertex 323.1517239490202 148.56252119357868 58.038050999999996
    vertex 303.0848369490202 148.56252119357868 55.030877
    vertex 323.1517239490202 148.56252119357868 55.030877
  endloop
endfacet
facet normal -0.0 -1.0 -0.0
  outer loop
    vertex 303.0848369490202 148.56252119357868 55.030877
    vertex 323.1517239490202 148.56252119357868 58.038050999999996
    vertex 303.0848369490202 148.56252119357868 58.038050999999996
  endloop
endfacet
facet normal -0.9238795325112907 -0.38268343236508034 0.0
  outer loop
    vertex 271.45751243819166 122.37557345726073 68.038051
    vertex 271.95201952958956 121.1817277305182 58.038050999999996
    vertex 271.95201952958956 121.1817277305182 68.038051
  endloop
endfacet
facet normal -0.9238795325112907 -0.38268343236508034 0.0
  outer loop
    vertex 271.95201952958956 121.1817277305182 58.038050999999996
    vertex 271.45751243819166 122.37557345726073 68.038051
    vertex 271.45751243819166 122.37557345726073 58.038050999999996
  endloop
endfacet
facet normal 0.9999525224953146 0.009744370439254817 0.0
  outer loop
    vertex 303.0848369490202 104.05800719357869 36.9633156557681
    vertex 303.2987431761835 82.10727443328693 44.35806421147086
    vertex 303.2987431761835 82.10727443328693 28.05194521147087
  endloop
endfacet
facet normal 0.9999525224953146 0.009744370439254817 0.0
  outer loop
    vertex 303.2987431761835 82.10727443328693 44.35806421147086
    vertex 303.0848369490202 104.05800719357869 36.9633156557681
    vertex 303.0848369490202 104.05800719357869 55.030877
  endloop
endfacet
facet normal -0.9914448613738103 -0.13052619222005346 0.0
  outer loop
    vertex 271.2888452783226 123.65672773051823 68.038051
    vertex 271.45751243819166 122.37557345726073 58.038050999999996
    vertex 271.45751243819166 122.37557345726073 68.038051
  endloop
endfacet
facet normal -0.9914448613738103 -0.13052619222005346 0.0
  outer loop
    vertex 271.45751243819166 122.37557345726073 58.038050999999996
    vertex 271.2888452783226 123.65672773051823 68.038051
    vertex 271.2888452783226 123.65672773051823 58.038050999999996
  endloop
endfacet
facet normal -0.9914448613738103 0.13052619222005346 0.0
  outer loop
    vertex 271.45751243819166 124.93788200377568 68.038051
    vertex 271.2888452783226 123.65672773051823 58.038050999999996
    vertex 271.2888452783226 123.65672773051823 68.038051
  endloop
endfacet
facet normal -0.9914448613738103 0.13052619222005346 0.0
  outer loop
    vertex 271.2888452783226 123.65672773051823 58.038050999999996
    vertex 271.45751243819166 124.93788200377568 68.038051
    vertex 271.45751243819166 124.93788200377568 58.038050999999996
  endloop
endfacet
facet normal -0.9238795325112907 0.38268343236508034 0.0
  outer loop
    vertex 271.95201952958956 126.13172773051821 68.038051
    vertex 271.45751243819166 124.93788200377568 58.038050999999996
    vertex 271.45751243819166 124.93788200377568 68.038051
  endloop
endfacet
facet normal -0.9238795325112907 0.38268343236508034 0.0
  outer loop
    vertex 271.45751243819166 124.93788200377568 58.038050999999996
    vertex 271.95201952958956 126.13172773051821 68.038051
    vertex 271.95201952958956 126.13172773051821 58.038050999999996
  endloop
endfacet
facet normal 0.0 0.0 -1.0
  outer loop
    vertex 284.81593413116565 171.82105611011008 0.0
    vertex 258.99749076075994 122.86324855532598 0.0
    vertex 256.94367763116566 123.5448917305182 0.0
  endloop
endfacet
facet normal 0.0 0.0 -1.0
  outer loop
    vertex 258.99749076075994 122.86324855532598 0.0
    vertex 284.81593413116565 171.82105611011008 0.0
    vertex 285.9706346695449 169.82105611011008 0.0
  endloop
endfacet
facet normal 0.0 0.0 -1.0
  outer loop
    vertex 285.9706346695449 169.82105611011008 0.0
    vertex 284.81593413116565 171.82105611011008 0.0
    vertex 340.5604471311657 171.82105611011008 0.0
  endloop
endfacet
facet normal 0.0 0.0 -1.0
  outer loop
    vertex 285.9706346695449 169.82105611011008 0.0
    vertex 340.5604471311657 171.82105611011008 0.0
    vertex 339.4057465927864 169.82105611011008 0.0
  endloop
endfacet
facet normal 0.0 0.0 -1.0
  outer loop
    vertex 339.4057465927864 169.82105611011008 0.0
    vertex 340.5604471311657 171.82105611011008 0.0
    vertex 366.12330255440713 123.54489173051815 0.0
  endloop
endfacet
facet normal 0.0 0.0 -1.0
  outer loop
    vertex 366.12330255440713 123.54489173051815 0.0
    vertex 340.5604471311657 171.82105611011008 0.0
    vertex 368.4327036311657 123.54489173051815 0.0
  endloop
endfacet
facet normal 0.0 0.0 -1.0
  outer loop
    vertex 258.99749076075994 122.86324855532598 0.0
    vertex 284.81593413116565 75.26872735092627 0.0
    vertex 256.94367763116566 123.5448917305182 0.0
  endloop
endfacet
facet normal 0.0 0.0 -1.0
  outer loop
    vertex 284.81593413116565 75.26872735092627 0.0
    vertex 258.99749076075994 122.86324855532598 0.0
    vertex 285.9706346695449 76.92328208363436 0.0
  endloop
endfacet
facet normal 0.0 0.0 -1.0
  outer loop
    vertex 284.81593413116565 75.26872735092627 0.0
    vertex 285.9706346695449 76.92328208363436 0.0
    vertex 299.69253423759613 75.26872735092627 0.0
  endloop
endfacet
facet normal 0.0 0.0 -1.0
  outer loop
    vertex 299.69253423759613 75.26872735092627 0.0
    vertex 285.9706346695449 76.92328208363436 0.0
    vertex 302.171131660074 76.92328208363436 0.0
  endloop
endfacet
facet normal 0.0 0.0 -1.0
  outer loop
    vertex 299.69253423759613 75.26872735092627 0.0
    vertex 302.171131660074 76.92328208363436 0.0
    vertex 302.171131660074 75.26872735092627 0.0
  endloop
endfacet
facet normal 0.0 0.0 -1.0
  outer loop
    vertex 302.171131660074 75.26872735092627 0.0
    vertex 302.171131660074 76.92328208363436 0.0
    vertex 325.3774583566416 77.26872735092628 0.0
  endloop
endfacet
facet normal 0.0 0.0 -1.0
  outer loop
    vertex 302.171131660074 75.26872735092627 0.0
    vertex 325.3774583566416 77.26872735092628 0.0
    vertex 324.17113166007397 75.26872735092627 0.0
  endloop
endfacet
facet normal 0.0 0.0 -1.0
  outer loop
    vertex 324.17113166007397 75.26872735092627 0.0
    vertex 325.3774583566416 77.26872735092628 0.0
    vertex 325.3774583566416 75.26872735092627 0.0
  endloop
endfacet
facet normal 0.0 0.0 -1.0
  outer loop
    vertex 325.3774583566416 75.26872735092627 0.0
    vertex 325.3774583566416 77.26872735092628 0.0
    vertex 339.4057465927864 77.26872735092628 0.0
  endloop
endfacet
facet normal 0.0 0.0 -1.0
  outer loop
    vertex 325.3774583566416 75.26872735092627 0.0
    vertex 339.4057465927864 77.26872735092628 0.0
    vertex 340.5604471311657 75.26872735092627 0.0
  endloop
endfacet
facet normal 0.0 0.0 -1.0
  outer loop
    vertex 340.5604471311657 75.26872735092627 0.0
    vertex 339.4057465927864 77.26872735092628 0.0
    vertex 366.12330255440713 123.54489173051815 0.0
  endloop
endfacet
facet normal 0.0 0.0 -1.0
  outer loop
    vertex 340.5604471311657 75.26872735092627 0.0
    vertex 366.12330255440713 123.54489173051815 0.0
    vertex 368.4327036311657 123.54489173051815 0.0
  endloop
endfacet
facet normal 0.0 1.0 -4.51154874405169e-12
  outer loop
    vertex 302.171131660074 162.72262543328696 60.070778
    vertex 324.17113166007397 162.72262543328162 58.89067399999999
    vertex 302.171131660074 162.72262543328162 58.89067399999999
  endloop
endfacet
facet normal 0.0 1.0 -4.51154874405169e-12
  outer loop
    vertex 324.17113166007397 162.72262543328162 58.89067399999999
    vertex 302.171131660074 162.72262543328696 60.070778
    vertex 324.17113166007397 162.72262543328696 60.070778
  endloop
endfacet
facet normal -0.7933533402912228 0.6087614290087366 0.0
  outer loop
    vertex 272.7386667114492 127.15690629739161 68.038051
    vertex 271.95201952958956 126.13172773051821 58.038050999999996
    vertex 271.95201952958956 126.13172773051821 68.038051
  endloop
endfacet
facet normal -0.7933533402912228 0.6087614290087366 0.0
  outer loop
    vertex 271.95201952958956 126.13172773051821 58.038050999999996
    vertex 272.7386667114492 127.15690629739161 68.038051
    vertex 272.7386667114492 127.15690629739161 58.038050999999996
  endloop
endfacet
facet normal 0.0 0.0 1.0
  outer loop
    vertex 284.81593413116565 171.82105611011008 58.038050999999996
    vertex 302.171131660074 160.5850465045273 58.038050999999996
    vertex 340.5604471311657 171.82105611011008 58.038050999999996
  endloop
endfacet
facet normal 0.0 0.0 1.0
  outer loop
    vertex 302.171131660074 160.5850465045273 58.038050999999996
    vertex 284.81593413116565 171.82105611011008 58.038050999999996
    vertex 302.171131660074 82.10727443328693 58.038050999999996
  endloop
endfacet
facet normal 0.0 0.0 1.0
  outer loop
    vertex 340.5604471311657 171.82105611011008 58.038050999999996
    vertex 302.171131660074 160.5850465045273 58.038050999999996
    vertex 324.17113166007397 160.5850465045273 58.038050999999996
  endloop
endfacet
facet normal 0.0 0.0 1.0
  outer loop
    vertex 340.5604471311657 171.82105611011008 58.038050999999996
    vertex 324.17113166007397 160.5850465045273 58.038050999999996
    vertex 340.5604471311657 75.26872735092627 58.038050999999996
  endloop
endfacet
facet normal 0.0 0.0 1.0
  outer loop
    vertex 340.5604471311657 171.82105611011008 58.038050999999996
    vertex 340.5604471311657 75.26872735092627 58.038050999999996
    vertex 344.2454592783225 123.65672773051823 58.038050999999996
  endloop
endfacet
facet normal 0.0 0.0 1.0
  outer loop
    vertex 344.2454592783225 123.65672773051823 58.038050999999996
    vertex 340.5604471311657 75.26872735092627 58.038050999999996
    vertex 344.41412643819166 122.37557345726073 58.038050999999996
  endloop
endfacet
facet normal 0.0 0.0 1.0
  outer loop
    vertex 344.41412643819166 122.37557345726073 58.038050999999996
    vertex 340.5604471311657 75.26872735092627 58.038050999999996
    vertex 344.9086335295895 121.1817277305182 58.038050999999996
  endloop
endfacet
facet normal 0.0 0.0 1.0
  outer loop
    vertex 344.9086335295895 121.1817277305182 58.038050999999996
    vertex 340.5604471311657 75.26872735092627 58.038050999999996
    vertex 345.69528071144913 120.1565491636448 58.038050999999996
  endloop
endfacet
facet normal 0.0 0.0 1.0
  outer loop
    vertex 345.69528071144913 120.1565491636448 58.038050999999996
    vertex 340.5604471311657 75.26872735092627 58.038050999999996
    vertex 346.72045927832255 119.36990198178525 58.038050999999996
  endloop
endfacet
facet normal 0.0 0.0 1.0
  outer loop
    vertex 346.72045927832255 119.36990198178525 58.038050999999996
    vertex 340.5604471311657 75.26872735092627 58.038050999999996
    vertex 347.91430500506505 118.87539489038734 58.038050999999996
  endloop
endfacet
facet normal 0.0 0.0 1.0
  outer loop
    vertex 347.91430500506505 118.87539489038734 58.038050999999996
    vertex 340.5604471311657 75.26872735092627 58.038050999999996
    vertex 349.1954592783225 118.70672773051822 58.038050999999996
  endloop
endfacet
facet normal 0.0 0.0 1.0
  outer loop
    vertex 349.1954592783225 118.70672773051822 58.038050999999996
    vertex 340.5604471311657 75.26872735092627 58.038050999999996
    vertex 350.47661355158004 118.87539489038734 58.038050999999996
  endloop
endfacet
facet normal 0.0 0.0 1.0
  outer loop
    vertex 350.47661355158004 118.87539489038734 58.038050999999996
    vertex 340.5604471311657 75.26872735092627 58.038050999999996
    vertex 368.4327036311657 123.54489173051815 58.038050999999996
  endloop
endfacet
facet normal 0.0 0.0 1.0
  outer loop
    vertex 350.47661355158004 118.87539489038734 58.038050999999996
    vertex 368.4327036311657 123.54489173051815 58.038050999999996
    vertex 351.6704592783225 119.36990198178525 58.038050999999996
  endloop
endfacet
facet normal 0.0 0.0 1.0
  outer loop
    vertex 351.6704592783225 119.36990198178525 58.038050999999996
    vertex 368.4327036311657 123.54489173051815 58.038050999999996
    vertex 352.6956378451959 120.1565491636448 58.038050999999996
  endloop
endfacet
facet normal 0.0 0.0 1.0
  outer loop
    vertex 352.6956378451959 120.1565491636448 58.038050999999996
    vertex 368.4327036311657 123.54489173051815 58.038050999999996
    vertex 353.4822850270555 121.1817277305182 58.038050999999996
  endloop
endfacet
facet normal 0.0 0.0 1.0
  outer loop
    vertex 353.4822850270555 121.1817277305182 58.038050999999996
    vertex 368.4327036311657 123.54489173051815 58.038050999999996
    vertex 353.97679211845343 122.37557345726073 58.038050999999996
  endloop
endfacet
facet normal 0.0 0.0 1.0
  outer loop
    vertex 353.97679211845343 122.37557345726073 58.038050999999996
    vertex 368.4327036311657 123.54489173051815 58.038050999999996
    vertex 354.1454592783225 123.65672773051823 58.038050999999996
  endloop
endfacet
facet normal 0.0 0.0 1.0
  outer loop
    vertex 340.5604471311657 171.82105611011008 58.038050999999996
    vertex 350.47661355158 128.43806057064913 58.038050999999996
    vertex 368.4327036311657 123.54489173051815 58.038050999999996
  endloop
endfacet
facet normal 0.0 0.0 1.0
  outer loop
    vertex 350.47661355158 128.43806057064913 58.038050999999996
    vertex 340.5604471311657 171.82105611011008 58.038050999999996
    vertex 349.1954592783225 128.60672773051823 58.038050999999996
  endloop
endfacet
facet normal 0.0 0.0 1.0
  outer loop
    vertex 349.1954592783225 128.60672773051823 58.038050999999996
    vertex 340.5604471311657 171.82105611011008 58.038050999999996
    vertex 347.91430500506505 128.43806057064913 58.038050999999996
  endloop
endfacet
facet normal 0.0 0.0 1.0
  outer loop
    vertex 347.91430500506505 128.43806057064913 58.038050999999996
    vertex 340.5604471311657 171.82105611011008 58.038050999999996
    vertex 346.7204592783225 127.94355347925116 58.038050999999996
  endloop
endfacet
facet normal 0.0 0.0 1.0
  outer loop
    vertex 346.7204592783225 127.94355347925116 58.038050999999996
    vertex 340.5604471311657 171.82105611011008 58.038050999999996
    vertex 345.69528071144913 127.15690629739161 58.038050999999996
  endloop
endfacet
facet normal 0.0 0.0 1.0
  outer loop
    vertex 345.69528071144913 127.15690629739161 58.038050999999996
    vertex 340.5604471311657 171.82105611011008 58.038050999999996
    vertex 344.9086335295895 126.13172773051821 58.038050999999996
  endloop
endfacet
facet normal 0.0 0.0 1.0
  outer loop
    vertex 344.9086335295895 126.13172773051821 58.038050999999996
    vertex 340.5604471311657 171.82105611011008 58.038050999999996
    vertex 344.41412643819166 124.93788200377568 58.038050999999996
  endloop
endfacet
facet normal 0.0 0.0 1.0
  outer loop
    vertex 344.41412643819166 124.93788200377568 58.038050999999996
    vertex 340.5604471311657 171.82105611011008 58.038050999999996
    vertex 344.2454592783225 123.65672773051823 58.038050999999996
  endloop
endfacet
facet normal 0.0 0.0 1.0
  outer loop
    vertex 368.4327036311657 123.54489173051815 58.038050999999996
    vertex 350.47661355158 128.43806057064913 58.038050999999996
    vertex 351.6704592783225 127.94355347925116 58.038050999999996
  endloop
endfacet
facet normal 0.0 0.0 1.0
  outer loop
    vertex 368.4327036311657 123.54489173051815 58.038050999999996
    vertex 351.6704592783225 127.94355347925116 58.038050999999996
    vertex 352.6956378451959 127.15690629739161 58.038050999999996
  endloop
endfacet
facet normal 0.0 0.0 1.0
  outer loop
    vertex 368.4327036311657 123.54489173051815 58.038050999999996
    vertex 352.6956378451959 127.15690629739161 58.038050999999996
    vertex 353.4822850270555 126.13172773051821 58.038050999999996
  endloop
endfacet
facet normal 0.0 0.0 1.0
  outer loop
    vertex 368.4327036311657 123.54489173051815 58.038050999999996
    vertex 353.4822850270555 126.13172773051821 58.038050999999996
    vertex 353.97679211845343 124.93788200377568 58.038050999999996
  endloop
endfacet
facet normal 0.0 0.0 1.0
  outer loop
    vertex 368.4327036311657 123.54489173051815 58.038050999999996
    vertex 353.97679211845343 124.93788200377568 58.038050999999996
    vertex 354.1454592783225 123.65672773051823 58.038050999999996
  endloop
endfacet
facet normal 0.0 0.0 1.0
  outer loop
    vertex 256.94367763116566 123.5448917305182 58.038050999999996
    vertex 271.45751243819166 122.37557345726073 58.038050999999996
    vertex 271.2888452783226 123.65672773051823 58.038050999999996
  endloop
endfacet
facet normal 0.0 0.0 1.0
  outer loop
    vertex 271.45751243819166 122.37557345726073 58.038050999999996
    vertex 256.94367763116566 123.5448917305182 58.038050999999996
    vertex 284.81593413116565 75.26872735092627 58.038050999999996
  endloop
endfacet
facet normal 0.0 0.0 1.0
  outer loop
    vertex 271.45751243819166 122.37557345726073 58.038050999999996
    vertex 284.81593413116565 75.26872735092627 58.038050999999996
    vertex 271.95201952958956 121.1817277305182 58.038050999999996
  endloop
endfacet
facet normal 0.0 0.0 1.0
  outer loop
    vertex 271.95201952958956 121.1817277305182 58.038050999999996
    vertex 284.81593413116565 75.26872735092627 58.038050999999996
    vertex 272.7386667114492 120.1565491636448 58.038050999999996
  endloop
endfacet
facet normal 0.0 0.0 1.0
  outer loop
    vertex 272.7386667114492 120.1565491636448 58.038050999999996
    vertex 284.81593413116565 75.26872735092627 58.038050999999996
    vertex 273.7638452783226 119.36990198178525 58.038050999999996
  endloop
endfacet
facet normal 0.0 0.0 1.0
  outer loop
    vertex 273.7638452783226 119.36990198178525 58.038050999999996
    vertex 284.81593413116565 75.26872735092627 58.038050999999996
    vertex 274.9576910050651 118.87539489038734 58.038050999999996
  endloop
endfacet
facet normal 0.0 0.0 1.0
  outer loop
    vertex 274.9576910050651 118.87539489038734 58.038050999999996
    vertex 284.81593413116565 75.26872735092627 58.038050999999996
    vertex 276.2388452783226 118.70672773051822 58.038050999999996
  endloop
endfacet
facet normal 0.0 0.0 1.0
  outer loop
    vertex 276.2388452783226 118.70672773051822 58.038050999999996
    vertex 284.81593413116565 75.26872735092627 58.038050999999996
    vertex 277.5199995515801 118.87539489038734 58.038050999999996
  endloop
endfacet
facet normal 0.0 0.0 1.0
  outer loop
    vertex 277.5199995515801 118.87539489038734 58.038050999999996
    vertex 284.81593413116565 75.26872735092627 58.038050999999996
    vertex 278.7138452783226 119.36990198178525 58.038050999999996
  endloop
endfacet
facet normal 0.0 0.0 1.0
  outer loop
    vertex 278.7138452783226 119.36990198178525 58.038050999999996
    vertex 284.81593413116565 75.26872735092627 58.038050999999996
    vertex 279.73902384519596 120.1565491636448 58.038050999999996
  endloop
endfacet
facet normal 0.0 0.0 1.0
  outer loop
    vertex 279.73902384519596 120.1565491636448 58.038050999999996
    vertex 284.81593413116565 75.26872735092627 58.038050999999996
    vertex 280.5256710270556 121.1817277305182 58.038050999999996
  endloop
endfacet
facet normal 0.0 0.0 1.0
  outer loop
    vertex 280.5256710270556 121.1817277305182 58.038050999999996
    vertex 284.81593413116565 75.26872735092627 58.038050999999996
    vertex 281.0201781184535 122.37557345726073 58.038050999999996
  endloop
endfacet
facet normal 0.0 0.0 1.0
  outer loop
    vertex 281.0201781184535 122.37557345726073 58.038050999999996
    vertex 284.81593413116565 75.26872735092627 58.038050999999996
    vertex 281.18884527832256 123.65672773051823 58.038050999999996
  endloop
endfacet
facet normal 0.0 0.0 1.0
  outer loop
    vertex 256.94367763116566 123.5448917305182 58.038050999999996
    vertex 271.45751243819166 124.93788200377568 58.038050999999996
    vertex 284.81593413116565 171.82105611011008 58.038050999999996
  endloop
endfacet
facet normal 0.0 0.0 1.0
  outer loop
    vertex 271.45751243819166 124.93788200377568 58.038050999999996
    vertex 256.94367763116566 123.5448917305182 58.038050999999996
    vertex 271.2888452783226 123.65672773051823 58.038050999999996
  endloop
endfacet
facet normal 0.0 0.0 1.0
  outer loop
    vertex 284.81593413116565 171.82105611011008 58.038050999999996
    vertex 271.45751243819166 124.93788200377568 58.038050999999996
    vertex 271.95201952958956 126.13172773051821 58.038050999999996
  endloop
endfacet
facet normal 0.0 0.0 1.0
  outer loop
    vertex 284.81593413116565 171.82105611011008 58.038050999999996
    vertex 271.95201952958956 126.13172773051821 58.038050999999996
    vertex 272.7386667114492 127.15690629739161 58.038050999999996
  endloop
endfacet
facet normal 0.0 0.0 1.0
  outer loop
    vertex 284.81593413116565 171.82105611011008 58.038050999999996
    vertex 272.7386667114492 127.15690629739161 58.038050999999996
    vertex 273.7638452783226 127.94355347925116 58.038050999999996
  endloop
endfacet
facet normal 0.0 0.0 1.0
  outer loop
    vertex 284.81593413116565 171.82105611011008 58.038050999999996
    vertex 273.7638452783226 127.94355347925116 58.038050999999996
    vertex 274.9576910050651 128.43806057064913 58.038050999999996
  endloop
endfacet
facet normal 0.0 0.0 1.0
  outer loop
    vertex 284.81593413116565 171.82105611011008 58.038050999999996
    vertex 274.9576910050651 128.43806057064913 58.038050999999996
    vertex 276.2388452783226 128.60672773051823 58.038050999999996
  endloop
endfacet
facet normal 0.0 0.0 1.0
  outer loop
    vertex 284.81593413116565 171.82105611011008 58.038050999999996
    vertex 276.2388452783226 128.60672773051823 58.038050999999996
    vertex 277.5199995515801 128.43806057064913 58.038050999999996
  endloop
endfacet
facet normal 0.0 0.0 1.0
  outer loop
    vertex 284.81593413116565 171.82105611011008 58.038050999999996
    vertex 277.5199995515801 128.43806057064913 58.038050999999996
    vertex 278.71384527832254 127.94355347925116 58.038050999999996
  endloop
endfacet
facet normal 0.0 0.0 1.0
  outer loop
    vertex 284.81593413116565 171.82105611011008 58.038050999999996
    vertex 278.71384527832254 127.94355347925116 58.038050999999996
    vertex 279.73902384519596 127.15690629739161 58.038050999999996
  endloop
endfacet
facet normal 0.0 0.0 1.0
  outer loop
    vertex 284.81593413116565 171.82105611011008 58.038050999999996
    vertex 279.73902384519596 127.15690629739161 58.038050999999996
    vertex 280.5256710270556 126.13172773051821 58.038050999999996
  endloop
endfacet
facet normal 0.0 0.0 1.0
  outer loop
    vertex 284.81593413116565 171.82105611011008 58.038050999999996
    vertex 280.5256710270556 126.13172773051821 58.038050999999996
    vertex 281.0201781184535 124.93788200377568 58.038050999999996
  endloop
endfacet
facet normal 0.0 0.0 1.0
  outer loop
    vertex 284.81593413116565 171.82105611011008 58.038050999999996
    vertex 281.0201781184535 124.93788200377568 58.038050999999996
    vertex 281.18884527832256 123.65672773051823 58.038050999999996
  endloop
endfacet
facet normal 0.0 0.0 1.0
  outer loop
    vertex 284.81593413116565 171.82105611011008 58.038050999999996
    vertex 281.18884527832256 123.65672773051823 58.038050999999996
    vertex 284.81593413116565 75.26872735092627 58.038050999999996
  endloop
endfacet
facet normal 0.0 0.0 1.0
  outer loop
    vertex 284.81593413116565 171.82105611011008 58.038050999999996
    vertex 284.81593413116565 75.26872735092627 58.038050999999996
    vertex 302.171131660074 82.10727443328693 58.038050999999996
  endloop
endfacet
facet normal 0.0 0.0 1.0
  outer loop
    vertex 302.171131660074 82.10727443328693 58.038050999999996
    vertex 284.81593413116565 75.26872735092627 58.038050999999996
    vertex 340.5604471311657 75.26872735092627 58.038050999999996
  endloop
endfacet
facet normal 0.0 0.0 1.0
  outer loop
    vertex 302.171131660074 82.10727443328693 58.038050999999996
    vertex 340.5604471311657 75.26872735092627 58.038050999999996
    vertex 324.17113166007397 82.10727443328693 58.038050999999996
  endloop
endfacet
facet normal 0.0 0.0 1.0
  outer loop
    vertex 324.17113166007397 82.10727443328693 58.038050999999996
    vertex 340.5604471311657 75.26872735092627 58.038050999999996
    vertex 324.17113166007397 160.5850465045273 58.038050999999996
  endloop
endfacet
facet normal -0.6087614290087147 0.7933533402912397 0.0
  outer loop
    vertex 272.7386667114492 127.15690629739161 68.038051
    vertex 273.7638452783226 127.94355347925116 58.038050999999996
    vertex 272.7386667114492 127.15690629739161 58.038050999999996
  endloop
endfacet
facet normal -0.6087614290087147 0.7933533402912397 0.0
  outer loop
    vertex 273.7638452783226 127.94355347925116 58.038050999999996
    vertex 272.7386667114492 127.15690629739161 68.038051
    vertex 273.7638452783226 127.94355347925116 68.038051
  endloop
endfacet
facet normal -1.5709080331193285e-08 -0.3761554922691892 0.9265565528534802
  outer loop
    vertex 323.14804309965047 75.26872735092627 25.275690449628755
    vertex 323.1260311761835 82.10727443328693 28.05194521147087
    vertex 303.32075509965046 75.26872735092627 25.275690449628755
  endloop
endfacet
facet normal -1.5709080331193285e-08 -0.3761554922691892 0.9265565528534802
  outer loop
    vertex 303.2987431761835 82.10727443328693 28.05194521147087
    vertex 323.1517239490202 148.56252119357868 55.030877
    vertex 303.0848369490202 148.56252119357868 55.030877
  endloop
endfacet
facet normal -1.5709080331193285e-08 -0.3761554922691892 0.9265565528534802
  outer loop
    vertex 323.1517239490202 148.56252119357868 55.030877
    vertex 303.2987431761835 82.10727443328693 28.05194521147087
    vertex 303.32075509965046 75.26872735092627 25.275690449628755
  endloop
endfacet
facet normal -1.5709080331193285e-08 -0.3761554922691892 0.9265565528534802
  outer loop
    vertex 323.1517239490202 148.56252119357868 55.030877
    vertex 303.32075509965046 75.26872735092627 25.275690449628755
    vertex 323.1260311761835 82.10727443328693 28.05194521147087
  endloop
endfacet
facet normal -1.5709080331193285e-08 -0.3761554922691892 0.9265565528534802
  outer loop
    vertex 323.1517239490202 148.56252119357868 55.030877
    vertex 323.1260311761835 82.10727443328693 28.05194521147087
    vertex 323.14312083449397 104.05801051969478 36.963318356384356
  endloop
endfacet
facet normal 0.0 0.3704882674632334 -0.9288371459368384
  outer loop
    vertex 324.17113166007397 162.72262543328162 58.89067399999999
    vertex 302.171131660074 160.5850465045273 58.038050999999996
    vertex 302.171131660074 162.72262543328162 58.89067399999999
  endloop
endfacet
facet normal 0.0 0.3704882674632334 -0.9288371459368384
  outer loop
    vertex 302.171131660074 160.5850465045273 58.038050999999996
    vertex 324.17113166007397 162.72262543328162 58.89067399999999
    vertex 324.17113166007397 160.5850465045273 58.038050999999996
  endloop
endfacet
facet normal -0.3826834323651077 0.9238795325112795 0.0
  outer loop
    vertex 273.7638452783226 127.94355347925116 68.038051
    vertex 274.9576910050651 128.43806057064913 58.038050999999996
    vertex 273.7638452783226 127.94355347925116 58.038050999999996
  endloop
endfacet
facet normal -0.3826834323651077 0.9238795325112795 0.0
  outer loop
    vertex 274.9576910050651 128.43806057064913 58.038050999999996
    vertex 273.7638452783226 127.94355347925116 68.038051
    vertex 274.9576910050651 128.43806057064913 68.038051
  endloop
endfacet
facet normal -0.13052619222005118 0.9914448613738105 0.0
  outer loop
    vertex 274.9576910050651 128.43806057064913 68.038051
    vertex 276.2388452783226 128.60672773051823 58.038050999999996
    vertex 274.9576910050651 128.43806057064913 58.038050999999996
  endloop
endfacet
facet normal -0.13052619222005118 0.9914448613738105 0.0
  outer loop
    vertex 276.2388452783226 128.60672773051823 58.038050999999996
    vertex 274.9576910050651 128.43806057064913 68.038051
    vertex 276.2388452783226 128.60672773051823 68.038051
  endloop
endfacet
facet normal 0.13052619222005118 0.9914448613738105 0.0
  outer loop
    vertex 276.2388452783226 128.60672773051823 68.038051
    vertex 277.5199995515801 128.43806057064913 58.038050999999996
    vertex 276.2388452783226 128.60672773051823 58.038050999999996
  endloop
endfacet
facet normal 0.13052619222005118 0.9914448613738105 0.0
  outer loop
    vertex 277.5199995515801 128.43806057064913 58.038050999999996
    vertex 276.2388452783226 128.60672773051823 68.038051
    vertex 277.5199995515801 128.43806057064913 68.038051
  endloop
endfacet
facet normal 0.3826834323651077 0.9238795325112795 0.0
  outer loop
    vertex 277.5199995515801 128.43806057064913 68.038051
    vertex 278.71384527832254 127.94355347925116 58.038050999999996
    vertex 277.5199995515801 128.43806057064913 58.038050999999996
  endloop
endfacet
facet normal 0.3826834323651077 0.9238795325112795 0.0
  outer loop
    vertex 278.71384527832254 127.94355347925116 58.038050999999996
    vertex 277.5199995515801 128.43806057064913 68.038051
    vertex 278.71384527832254 127.94355347925116 68.038051
  endloop
endfacet
facet normal -0.8660254037844386 0.5000000000000001 0.0
  outer loop
    vertex 284.81593413116565 171.82105611011008 58.038050999999996
    vertex 256.94367763116566 123.5448917305182 0.0
    vertex 256.94367763116566 123.5448917305182 58.038050999999996
  endloop
endfacet
facet normal -0.8660254037844386 0.5000000000000001 0.0
  outer loop
    vertex 256.94367763116566 123.5448917305182 0.0
    vertex 284.81593413116565 171.82105611011008 58.038050999999996
    vertex 284.81593413116565 171.82105611011008 0.0
  endloop
endfacet
facet normal 1.0 0.0 0.0
  outer loop
    vertex 303.0848369490202 148.56252119357868 55.030877
    vertex 303.0848369490202 104.05800719357869 58.038050999999996
    vertex 303.0848369490202 104.05800719357869 55.030877
  endloop
endfacet
facet normal 1.0 0.0 0.0
  outer loop
    vertex 303.0848369490202 104.05800719357869 58.038050999999996
    vertex 303.0848369490202 148.56252119357868 55.030877
    vertex 303.0848369490202 148.56252119357868 58.038050999999996
  endloop
endfacet
facet normal 0.0 0.0 -1.0
  outer loop
    vertex 285.9706346695449 169.82105611011008 0.0
    vertex 285.9706346695449 76.92328208363436 0.0
    vertex 258.99749076075994 122.86324855532598 0.0
  endloop
endfacet
facet normal 0.0 0.0 -1.0
  outer loop
    vertex 285.9706346695449 76.92328208363436 0.0
    vertex 285.9706346695449 169.82105611011008 0.0
    vertex 339.4057465927864 169.82105611011008 0.0
  endloop
endfacet
facet normal 0.0 0.0 -1.0
  outer loop
    vertex 285.9706346695449 76.92328208363436 0.0
    vertex 339.4057465927864 169.82105611011008 0.0
    vertex 302.171131660074 76.92328208363436 0.0
  endloop
endfacet
facet normal 0.0 0.0 -1.0
  outer loop
    vertex 302.171131660074 76.92328208363436 0.0
    vertex 339.4057465927864 169.82105611011008 0.0
    vertex 325.3774583566416 77.26872735092628 0.0
  endloop
endfacet
facet normal 0.0 0.0 -1.0
  outer loop
    vertex 325.3774583566416 77.26872735092628 0.0
    vertex 339.4057465927864 169.82105611011008 0.0
    vertex 339.4057465927864 77.26872735092628 0.0
  endloop
endfacet
facet normal 0.0 0.0 -1.0
  outer loop
    vertex 339.4057465927864 77.26872735092628 0.0
    vertex 339.4057465927864 169.82105611011008 0.0
    vertex 366.12330255440713 123.54489173051815 0.0
  endloop
endfacet
facet normal 0.6087614290087147 0.7933533402912397 0.0
  outer loop
    vertex 278.71384527832254 127.94355347925116 68.038051
    vertex 279.73902384519596 127.15690629739161 58.038050999999996
    vertex 278.71384527832254 127.94355347925116 58.038050999999996
  endloop
endfacet
facet normal 0.6087614290087147 0.7933533402912397 0.0
  outer loop
    vertex 279.73902384519596 127.15690629739161 58.038050999999996
    vertex 278.71384527832254 127.94355347925116 68.038051
    vertex 279.73902384519596 127.15690629739161 68.038051
  endloop
endfacet
facet normal -3.048275851369983e-17 0.4372695124255864 -0.8993305140509188
  outer loop
    vertex 323.1517239490202 104.05800719357869 55.030877
    vertex 303.2987431761835 82.10727443328693 44.35806421147086
    vertex 303.0848369490202 104.05800719357869 55.030877
  endloop
endfacet
facet normal -3.048275851369983e-17 0.4372695124255864 -0.8993305140509188
  outer loop
    vertex 303.2987431761835 82.10727443328693 44.35806421147086
    vertex 323.1517239490202 104.05800719357869 55.030877
    vertex 323.1260311761835 82.10727443328693 44.35806421147086
  endloop
endfacet
facet normal 0.7933533402912228 0.6087614290087366 0.0
  outer loop
    vertex 279.73902384519596 127.15690629739161 58.038050999999996
    vertex 280.5256710270556 126.13172773051821 68.038051
    vertex 280.5256710270556 126.13172773051821 58.038050999999996
  endloop
endfacet
facet normal 0.7933533402912228 0.6087614290087366 0.0
  outer loop
    vertex 280.5256710270556 126.13172773051821 68.038051
    vertex 279.73902384519596 127.15690629739161 58.038050999999996
    vertex 279.73902384519596 127.15690629739161 68.038051
  endloop
endfacet
facet normal 0.9238795325112907 0.38268343236508034 0.0
  outer loop
    vertex 280.5256710270556 126.13172773051821 58.038050999999996
    vertex 281.0201781184535 124.93788200377568 68.038051
    vertex 281.0201781184535 124.93788200377568 58.038050999999996
  endloop
endfacet
facet normal 0.9238795325112907 0.38268343236508034 0.0
  outer loop
    vertex 281.0201781184535 124.93788200377568 68.038051
    vertex 280.5256710270556 126.13172773051821 58.038050999999996
    vertex 280.5256710270556 126.13172773051821 68.038051
  endloop
endfacet
facet normal 0.9914448613738103 0.13052619222005346 0.0
  outer loop
    vertex 281.0201781184535 124.93788200377568 58.038050999999996
    vertex 281.18884527832256 123.65672773051823 68.038051
    vertex 281.18884527832256 123.65672773051823 58.038050999999996
  endloop
endfacet
facet normal 0.9914448613738103 0.13052619222005346 0.0
  outer loop
    vertex 281.18884527832256 123.65672773051823 68.038051
    vertex 281.0201781184535 124.93788200377568 58.038050999999996
    vertex 281.0201781184535 124.93788200377568 68.038051
  endloop
endfacet
facet normal -0.8938910734908098 -4.3175098677860136e-19 0.44828422762065573
  outer loop
    vertex 324.17113166007397 162.72262543328696 60.070778
    vertex 323.1517239490202 104.05800719357869 58.038050999999996
    vertex 324.17113166007397 82.10727443328693 60.070778
  endloop
endfacet
facet normal -0.8938910734908098 -4.3175098677860136e-19 0.44828422762065573
  outer loop
    vertex 323.1517239490202 104.05800719357869 58.038050999999996
    vertex 324.17113166007397 162.72262543328696 60.070778
    vertex 323.1517239490202 148.56252119357868 58.038050999999996
  endloop
endfacet
facet normal 0.9914448613738103 -0.13052619222005346 0.0
  outer loop
    vertex 281.18884527832256 123.65672773051823 58.038050999999996
    vertex 281.0201781184535 122.37557345726073 68.038051
    vertex 281.0201781184535 122.37557345726073 58.038050999999996
  endloop
endfacet
facet normal 0.9914448613738103 -0.13052619222005346 0.0
  outer loop
    vertex 281.0201781184535 122.37557345726073 68.038051
    vertex 281.18884527832256 123.65672773051823 58.038050999999996
    vertex 281.18884527832256 123.65672773051823 68.038051
  endloop
endfacet
facet normal 0.9238795325112907 -0.38268343236508034 0.0
  outer loop
    vertex 281.0201781184535 122.37557345726073 58.038050999999996
    vertex 280.5256710270556 121.1817277305182 68.038051
    vertex 280.5256710270556 121.1817277305182 58.038050999999996
  endloop
endfacet
facet normal 0.9238795325112907 -0.38268343236508034 0.0
  outer loop
    vertex 280.5256710270556 121.1817277305182 68.038051
    vertex 281.0201781184535 122.37557345726073 58.038050999999996
    vertex 281.0201781184535 122.37557345726073 68.038051
  endloop
endfacet
facet normal 0.0 -1.0 0.0
  outer loop
    vertex 324.17113166007397 82.10727443328693 60.070778
    vertex 302.171131660074 82.10727443328693 58.038050999999996
    vertex 324.17113166007397 82.10727443328693 58.038050999999996
  endloop
endfacet
facet normal 0.0 -1.0 0.0
  outer loop
    vertex 302.171131660074 82.10727443328693 58.038050999999996
    vertex 324.17113166007397 82.10727443328693 60.070778
    vertex 302.171131660074 82.10727443328693 60.070778
  endloop
endfacet
facet normal 0.7933533402912228 -0.6087614290087366 0.0
  outer loop
    vertex 280.5256710270556 121.1817277305182 58.038050999999996
    vertex 279.73902384519596 120.1565491636448 68.038051
    vertex 279.73902384519596 120.1565491636448 58.038050999999996
  endloop
endfacet
facet normal 0.7933533402912228 -0.6087614290087366 0.0
  outer loop
    vertex 279.73902384519596 120.1565491636448 68.038051
    vertex 280.5256710270556 121.1817277305182 58.038050999999996
    vertex 280.5256710270556 121.1817277305182 68.038051
  endloop
endfacet
facet normal 1.0 0.0 0.0
  outer loop
    vertex 303.0848369490202 148.56252119357868 55.030877
    vertex 303.0848369490202 104.05800719357869 55.030877
    vertex 303.0848369490202 104.05800719357869 36.9633156557681
  endloop
endfacet
facet normal 0.6087614290087315 -0.7933533402912271 0.0
  outer loop
    vertex 279.73902384519596 120.1565491636448 68.038051
    vertex 278.7138452783226 119.36990198178525 58.038050999999996
    vertex 279.73902384519596 120.1565491636448 58.038050999999996
  endloop
endfacet
facet normal 0.6087614290087315 -0.7933533402912271 0.0
  outer loop
    vertex 278.7138452783226 119.36990198178525 58.038050999999996
    vertex 279.73902384519596 120.1565491636448 68.038051
    vertex 278.7138452783226 119.36990198178525 68.038051
  endloop
endfacet
facet normal 0.38268343236509533 -0.9238795325112846 0.0
  outer loop
    vertex 278.7138452783226 119.36990198178525 68.038051
    vertex 277.5199995515801 118.87539489038734 58.038050999999996
    vertex 278.7138452783226 119.36990198178525 58.038050999999996
  endloop
endfacet
facet normal 0.38268343236509533 -0.9238795325112846 0.0
  outer loop
    vertex 277.5199995515801 118.87539489038734 58.038050999999996
    vertex 278.7138452783226 119.36990198178525 68.038051
    vertex 277.5199995515801 118.87539489038734 68.038051
  endloop
endfacet
facet normal 0.13052619222005118 -0.9914448613738105 0.0
  outer loop
    vertex 277.5199995515801 118.87539489038734 68.038051
    vertex 276.2388452783226 118.70672773051822 58.038050999999996
    vertex 277.5199995515801 118.87539489038734 58.038050999999996
  endloop
endfacet
facet normal 0.13052619222005118 -0.9914448613738105 0.0
  outer loop
    vertex 276.2388452783226 118.70672773051822 58.038050999999996
    vertex 277.5199995515801 118.87539489038734 68.038051
    vertex 276.2388452783226 118.70672773051822 68.038051
  endloop
endfacet
facet normal 0.8660254037844386 -0.5000000000000002 0.0
  outer loop
    vertex 368.4327036311657 123.54489173051815 0.0
    vertex 340.5604471311657 75.26872735092627 58.038050999999996
    vertex 340.5604471311657 75.26872735092627 0.0
  endloop
endfacet
facet normal 0.8660254037844386 -0.5000000000000002 0.0
  outer loop
    vertex 340.5604471311657 75.26872735092627 58.038050999999996
    vertex 368.4327036311657 123.54489173051815 0.0
    vertex 368.4327036311657 123.54489173051815 58.038050999999996
  endloop
endfacet
facet normal 1.0 0.0 0.0
  outer loop
    vertex 324.17113166007397 160.5850465045273 58.038050999999996
    vertex 324.17113166007397 82.10727443328693 60.070778
    vertex 324.17113166007397 82.10727443328693 58.038050999999996
  endloop
endfacet
facet normal 1.0 0.0 0.0
  outer loop
    vertex 324.17113166007397 82.10727443328693 60.070778
    vertex 324.17113166007397 160.5850465045273 58.038050999999996
    vertex 324.17113166007397 162.72262543328696 60.070778
  endloop
endfacet
facet normal 1.0 0.0 0.0
  outer loop
    vertex 324.17113166007397 162.72262543328696 60.070778
    vertex 324.17113166007397 160.5850465045273 58.038050999999996
    vertex 324.17113166007397 162.72262543328162 58.89067399999999
  endloop
endfacet
facet normal -0.9999998866341124 0.0 0.00047616358804370465
  outer loop
    vertex 323.1517239490202 148.56252119357868 55.030877
    vertex 323.14312083449397 104.05801051969478 36.963318356384356
    vertex 323.1517239490202 104.05800719357869 55.030877
  endloop
endfacet
facet normal 1.992779257009381e-16 -1.0 -7.720636035344e-18
  outer loop
    vertex 340.5604471311657 75.26872735092627 58.038050999999996
    vertex 325.3774583566416 75.26872735092627 0.0
    vertex 340.5604471311657 75.26872735092627 0.0
  endloop
endfacet
facet normal 1.992779257009381e-16 -1.0 -7.720636035344e-18
  outer loop
    vertex 325.3774583566416 75.26872735092627 0.0
    vertex 340.5604471311657 75.26872735092627 58.038050999999996
    vertex 324.17113166007397 75.26872735092627 0.0
  endloop
endfacet
facet normal 1.992779257009381e-16 -1.0 -7.720636035344e-18
  outer loop
    vertex 324.17113166007397 75.26872735092627 0.0
    vertex 340.5604471311657 75.26872735092627 58.038050999999996
    vertex 323.14804309965047 75.26872735092627 25.275690449628755
  endloop
endfacet
facet normal 1.992779257009381e-16 -1.0 -7.720636035344e-18
  outer loop
    vertex 324.17113166007397 75.26872735092627 0.0
    vertex 323.14804309965047 75.26872735092627 25.275690449628755
    vertex 302.171131660074 75.26872735092627 0.0
  endloop
endfacet
facet normal 1.992779257009381e-16 -1.0 -7.720636035344e-18
  outer loop
    vertex 302.171131660074 75.26872735092627 0.0
    vertex 323.14804309965047 75.26872735092627 25.275690449628755
    vertex 299.69253423759613 75.26872735092627 0.0
  endloop
endfacet
facet normal 1.992779257009381e-16 -1.0 -7.720636035344e-18
  outer loop
    vertex 299.69253423759613 75.26872735092627 0.0
    vertex 323.14804309965047 75.26872735092627 25.275690449628755
    vertex 284.81593413116565 75.26872735092627 0.0
  endloop
endfacet
facet normal 1.992779257009381e-16 -1.0 -7.720636035344e-18
  outer loop
    vertex 323.14804309965047 75.26872735092627 25.275690449628755
    vertex 340.5604471311657 75.26872735092627 58.038050999999996
    vertex 323.1260311761835 75.26872735092627 28.05194521147087
  endloop
endfacet
facet normal 1.992779257009381e-16 -1.0 -7.720636035344e-18
  outer loop
    vertex 323.1260311761835 75.26872735092627 28.05194521147087
    vertex 340.5604471311657 75.26872735092627 58.038050999999996
    vertex 323.1260311761835 75.26872735092627 44.35806421147086
  endloop
endfacet
facet normal 1.992779257009381e-16 -1.0 -7.720636035344e-18
  outer loop
    vertex 323.1260311761835 75.26872735092627 44.35806421147086
    vertex 340.5604471311657 75.26872735092627 58.038050999999996
    vertex 303.2987431761835 75.26872735092627 44.35806421147086
  endloop
endfacet
facet normal 1.992779257009381e-16 -1.0 -7.720636035344e-18
  outer loop
    vertex 284.81593413116565 75.26872735092627 0.0
    vertex 303.32075509965046 75.26872735092627 25.275690449628755
    vertex 284.81593413116565 75.26872735092627 58.038050999999996
  endloop
endfacet
facet normal 1.992779257009381e-16 -1.0 -7.720636035344e-18
  outer loop
    vertex 303.32075509965046 75.26872735092627 25.275690449628755
    vertex 284.81593413116565 75.26872735092627 0.0
    vertex 323.14804309965047 75.26872735092627 25.275690449628755
  endloop
endfacet
facet normal 1.992779257009381e-16 -1.0 -7.720636035344e-18
  outer loop
    vertex 284.81593413116565 75.26872735092627 58.038050999999996
    vertex 303.32075509965046 75.26872735092627 25.275690449628755
    vertex 303.2987431761835 75.26872735092627 28.05194521147087
  endloop
endfacet
facet normal 1.992779257009381e-16 -1.0 -7.720636035344e-18
  outer loop
    vertex 284.81593413116565 75.26872735092627 58.038050999999996
    vertex 303.2987431761835 75.26872735092627 28.05194521147087
    vertex 303.2987431761835 75.26872735092627 44.35806421147086
  endloop
endfacet
facet normal 1.992779257009381e-16 -1.0 -7.720636035344e-18
  outer loop
    vertex 284.81593413116565 75.26872735092627 58.038050999999996
    vertex 303.2987431761835 75.26872735092627 44.35806421147086
    vertex 340.5604471311657 75.26872735092627 58.038050999999996
  endloop
endfacet
facet normal -1.0 0.0 0.0
  outer loop
    vertex 323.1517239490202 148.56252119357868 58.038050999999996
    vertex 323.1517239490202 104.05800719357869 55.030877
    vertex 323.1517239490202 104.05800719357869 58.038050999999996
  endloop
endfacet
facet normal -1.0 0.0 0.0
  outer loop
    vertex 323.1517239490202 104.05800719357869 55.030877
    vertex 323.1517239490202 148.56252119357868 58.038050999999996
    vertex 323.1517239490202 148.56252119357868 55.030877
  endloop
endfacet
facet normal 0.91209301047033 0.0 0.4099833414312959
  outer loop
    vertex 303.0848369490202 104.05800719357869 58.038050999999996
    vertex 302.171131660074 162.72262543328696 60.070778
    vertex 302.171131660074 82.10727443328693 60.070778
  endloop
endfacet
facet normal 0.91209301047033 0.0 0.4099833414312959
  outer loop
    vertex 302.171131660074 162.72262543328696 60.070778
    vertex 303.0848369490202 104.05800719357869 58.038050999999996
    vertex 303.0848369490202 148.56252119357868 58.038050999999996
  endloop
endfacet
facet normal -8.772097185862769e-08 0.0 -0.9999999999999962
  outer loop
    vertex 323.1260311761835 82.10727443328693 44.35806421147086
    vertex 303.2987431761835 75.26872735092627 44.35806421147086
    vertex 303.2987431761835 82.10727443328693 44.35806421147086
  endloop
endfacet
facet normal -8.772097185862769e-08 0.0 -0.9999999999999962
  outer loop
    vertex 303.2987431761835 75.26872735092627 44.35806421147086
    vertex 323.1260311761835 82.10727443328693 44.35806421147086
    vertex 323.1260311761835 75.26872735092627 44.35806421147086
  endloop
endfacet
facet normal 6.678819712215314e-18 0.09220953323159631 0.9957396255955727
  outer loop
    vertex 324.17113166007397 82.10727443328693 60.070778
    vertex 303.0848369490202 104.05800719357869 58.038050999999996
    vertex 302.171131660074 82.10727443328693 60.070778
  endloop
endfacet
facet normal 6.678819712215314e-18 0.09220953323159631 0.9957396255955727
  outer loop
    vertex 303.0848369490202 104.05800719357869 58.038050999999996
    vertex 324.17113166007397 82.10727443328693 60.070778
    vertex 323.1517239490202 104.05800719357869 58.038050999999996
  endloop
endfacet
facet normal -0.999968569818829 0.0 -0.0079283904095381
  outer loop
    vertex 323.1260311761835 82.10727443328693 28.05194521147087
    vertex 323.14804309965047 75.26872735092627 25.275690449628755
    vertex 323.1260311761835 75.26872735092627 28.05194521147087
  endloop
endfacet
facet normal 0.999968569818829 3.667806974455884e-19 0.007928390409539621
  outer loop
    vertex 303.2987431761835 82.10727443328693 28.05194521147087
    vertex 303.2987431761835 75.26872735092627 28.05194521147087
    vertex 303.32075509965046 75.26872735092627 25.275690449628755
  endloop
endfacet
facet normal -0.8660254037844389 -0.49999999999999983 -0.0
  outer loop
    vertex 256.94367763116566 123.5448917305182 58.038050999999996
    vertex 284.81593413116565 75.26872735092627 0.0
    vertex 284.81593413116565 75.26872735092627 58.038050999999996
  endloop
endfacet
facet normal -0.8660254037844389 -0.49999999999999983 -0.0
  outer loop
    vertex 284.81593413116565 75.26872735092627 0.0
    vertex 256.94367763116566 123.5448917305182 58.038050999999996
    vertex 256.94367763116566 123.5448917305182 0.0
  endloop
endfacet
facet normal 4.0469869851375636e-16 1.0 0.0
  outer loop
    vertex 284.81593413116565 171.82105611011008 58.038050999999996
    vertex 340.5604471311657 171.82105611011008 0.0
    vertex 284.81593413116565 171.82105611011008 0.0
  endloop
endfacet
facet normal 4.0469869851375636e-16 1.0 0.0
  outer loop
    vertex 340.5604471311657 171.82105611011008 0.0
    vertex 284.81593413116565 171.82105611011008 58.038050999999996
    vertex 340.5604471311657 171.82105611011008 58.038050999999996
  endloop
endfacet
facet normal 0.8660254037844387 0.49999999999999994 0.0
  outer loop
    vertex 340.5604471311657 171.82105611011008 0.0
    vertex 368.4327036311657 123.54489173051815 58.038050999999996
    vertex 368.4327036311657 123.54489173051815 0.0
  endloop
endfacet
facet normal 0.8660254037844387 0.49999999999999994 0.0
  outer loop
    vertex 368.4327036311657 123.54489173051815 58.038050999999996
    vertex 340.5604471311657 171.82105611011008 0.0
    vertex 340.5604471311657 171.82105611011008 58.038050999999996
  endloop
endfacet
facet normal -2.2146409589239147e-14 -0.3761554919935165 0.9265565529653954
  outer loop
    vertex 303.2987431761835 82.10727443328693 28.05194521147087
    vertex 303.0848369490202 148.56252119357868 55.030877
    vertex 303.0848369490202 104.05800719357869 36.9633156557681
  endloop
endfacet
facet normal -1.0 0.0 0.0
  outer loop
    vertex 302.171131660074 162.72262543328696 60.070778
    vertex 302.171131660074 82.10727443328693 58.038050999999996
    vertex 302.171131660074 82.10727443328693 60.070778
  endloop
endfacet
facet normal -1.0 0.0 0.0
  outer loop
    vertex 302.171131660074 82.10727443328693 58.038050999999996
    vertex 302.171131660074 162.72262543328696 60.070778
    vertex 302.171131660074 160.5850465045273 58.038050999999996
  endloop
endfacet
facet normal -1.0 0.0 0.0
  outer loop
    vertex 302.171131660074 160.5850465045273 58.038050999999996
    vertex 302.171131660074 162.72262543328696 60.070778
    vertex 302.171131660074 162.72262543328162 58.89067399999999
  endloop
endfacet
facet normal 1.0 0.0 0.0
  outer loop
    vertex 303.2987431761835 82.10727443328693 28.05194521147087
    vertex 303.2987431761835 75.26872735092627 44.35806421147086
    vertex 303.2987431761835 75.26872735092627 28.05194521147087
  endloop
endfacet
facet normal 1.0 0.0 0.0
  outer loop
    vertex 303.2987431761835 75.26872735092627 44.35806421147086
    vertex 303.2987431761835 82.10727443328693 28.05194521147087
    vertex 303.2987431761835 82.10727443328693 44.35806421147086
  endloop
endfacet
facet normal 1.005022913571152e-18 -0.14209645018078132 0.9898528167591488
  outer loop
    vertex 303.0848369490202 148.56252119357868 58.038050999999996
    vertex 324.17113166007397 162.72262543328696 60.070778
    vertex 302.171131660074 162.72262543328696 60.070778
  endloop
endfacet
facet normal 1.005022913571152e-18 -0.14209645018078132 0.9898528167591488
  outer loop
    vertex 324.17113166007397 162.72262543328696 60.070778
    vertex 303.0848369490202 148.56252119357868 58.038050999999996
    vertex 323.1517239490202 148.56252119357868 58.038050999999996
  endloop
endfacet
facet normal -0.9999997168603036 0.0007221835829382061 0.00021149511877018666
  outer loop
    vertex 323.1260311761835 82.10727443328693 44.35806421147086
    vertex 323.1260311761835 75.26872735092627 28.05194521147087
    vertex 323.1260311761835 75.26872735092627 44.35806421147086
  endloop
endfacet
facet normal -0.9999997168603036 0.0007221835829382061 0.00021149511877018666
  outer loop
    vertex 323.1260311761835 75.26872735092627 28.05194521147087
    vertex 323.1260311761835 82.10727443328693 44.35806421147086
    vertex 323.1260311761835 82.10727443328693 28.05194521147087
  endloop
endfacet
facet normal -0.9999997168603036 0.0007221835829382061 0.00021149511877018666
  outer loop
    vertex 323.1260311761835 82.10727443328693 28.05194521147087
    vertex 323.1260311761835 82.10727443328693 44.35806421147086
    vertex 323.1517239490202 104.05800719357869 55.030877
  endloop
endfacet
facet normal -0.9999997168603036 0.0007221835829382061 0.00021149511877018666
  outer loop
    vertex 323.1260311761835 82.10727443328693 28.05194521147087
    vertex 323.1517239490202 104.05800719357869 55.030877
    vertex 323.14312083449397 104.05801051969478 36.963318356384356
  endloop
endfacet
facet normal -0.1305261922200557 -0.99144486137381 0.0
  outer loop
    vertex 276.2388452783226 118.70672773051822 68.038051
    vertex 274.9576910050651 118.87539489038734 58.038050999999996
    vertex 276.2388452783226 118.70672773051822 58.038050999999996
  endloop
endfacet
facet normal -0.1305261922200557 -0.99144486137381 0.0
  outer loop
    vertex 274.9576910050651 118.87539489038734 58.038050999999996
    vertex 276.2388452783226 118.70672773051822 68.038051
    vertex 274.9576910050651 118.87539489038734 68.038051
  endloop
endfacet
facet normal -0.38268343236509533 -0.9238795325112846 0.0
  outer loop
    vertex 274.9576910050651 118.87539489038734 68.038051
    vertex 273.7638452783226 119.36990198178525 58.038050999999996
    vertex 274.9576910050651 118.87539489038734 58.038050999999996
  endloop
endfacet
facet normal -0.38268343236509533 -0.9238795325112846 0.0
  outer loop
    vertex 273.7638452783226 119.36990198178525 58.038050999999996
    vertex 274.9576910050651 118.87539489038734 68.038051
    vertex 273.7638452783226 119.36990198178525 68.038051
  endloop
endfacet
facet normal -0.6087614290087147 -0.7933533402912397 0.0
  outer loop
    vertex 273.7638452783226 119.36990198178525 68.038051
    vertex 272.7386667114492 120.1565491636448 58.038050999999996
    vertex 273.7638452783226 119.36990198178525 58.038050999999996
  endloop
endfacet
facet normal -0.6087614290087147 -0.7933533402912397 0.0
  outer loop
    vertex 272.7386667114492 120.1565491636448 58.038050999999996
    vertex 273.7638452783226 119.36990198178525 68.038051
    vertex 272.7386667114492 120.1565491636448 68.038051
  endloop
endfacet
facet normal 0.0 1.0 0.0
  outer loop
    vertex 303.0848369490202 104.05800719357869 58.038050999999996
    vertex 323.1517239490202 104.05800719357869 55.030877
    vertex 303.0848369490202 104.05800719357869 55.030877
  endloop
endfacet
facet normal 0.0 1.0 0.0
  outer loop
    vertex 323.1517239490202 104.05800719357869 55.030877
    vertex 303.0848369490202 104.05800719357869 58.038050999999996
    vertex 323.1517239490202 104.05800719357869 58.038050999999996
  endloop
endfacet
facet normal -0.7933533402912228 -0.6087614290087366 0.0
  outer loop
    vertex 271.95201952958956 121.1817277305182 68.038051
    vertex 272.7386667114492 120.1565491636448 58.038050999999996
    vertex 272.7386667114492 120.1565491636448 68.038051
  endloop
endfacet
facet normal -0.7933533402912228 -0.6087614290087366 0.0
  outer loop
    vertex 272.7386667114492 120.1565491636448 58.038050999999996
    vertex 271.95201952958956 121.1817277305182 68.038051
    vertex 271.95201952958956 121.1817277305182 58.038050999999996
  endloop
endfacet
facet normal 0.0 0.0 1.0
  outer loop
    vertex 344.41412643819166 122.37557345726073 68.038051
    vertex 344.41412643819166 124.93788200377568 68.038051
    vertex 344.2454592783225 123.65672773051823 68.038051
  endloop
endfacet
facet normal 0.0 0.0 1.0
  outer loop
    vertex 344.41412643819166 124.93788200377568 68.038051
    vertex 344.41412643819166 122.37557345726073 68.038051
    vertex 344.9086335295895 121.1817277305182 68.038051
  endloop
endfacet
facet normal 0.0 0.0 1.0
  outer loop
    vertex 344.41412643819166 124.93788200377568 68.038051
    vertex 344.9086335295895 121.1817277305182 68.038051
    vertex 344.9086335295895 126.13172773051821 68.038051
  endloop
endfacet
facet normal 0.0 0.0 1.0
  outer loop
    vertex 344.9086335295895 126.13172773051821 68.038051
    vertex 344.9086335295895 121.1817277305182 68.038051
    vertex 345.69528071144913 120.1565491636448 68.038051
  endloop
endfacet
facet normal 0.0 0.0 1.0
  outer loop
    vertex 344.9086335295895 126.13172773051821 68.038051
    vertex 345.69528071144913 120.1565491636448 68.038051
    vertex 345.69528071144913 127.15690629739161 68.038051
  endloop
endfacet
facet normal 0.0 0.0 1.0
  outer loop
    vertex 345.69528071144913 127.15690629739161 68.038051
    vertex 345.69528071144913 120.1565491636448 68.038051
    vertex 346.72045927832255 119.36990198178525 68.038051
  endloop
endfacet
facet normal 0.0 0.0 1.0
  outer loop
    vertex 345.69528071144913 127.15690629739161 68.038051
    vertex 346.72045927832255 119.36990198178525 68.038051
    vertex 346.7204592783225 127.94355347925116 68.038051
  endloop
endfacet
facet normal 0.0 0.0 1.0
  outer loop
    vertex 346.7204592783225 127.94355347925116 68.038051
    vertex 346.72045927832255 119.36990198178525 68.038051
    vertex 347.91430500506505 128.43806057064913 68.038051
  endloop
endfacet
facet normal 0.0 0.0 1.0
  outer loop
    vertex 347.91430500506505 128.43806057064913 68.038051
    vertex 346.72045927832255 119.36990198178525 68.038051
    vertex 347.91430500506505 118.87539489038734 68.038051
  endloop
endfacet
facet normal 0.0 0.0 1.0
  outer loop
    vertex 347.91430500506505 128.43806057064913 68.038051
    vertex 347.91430500506505 118.87539489038734 68.038051
    vertex 349.1954592783225 118.70672773051822 68.038051
  endloop
endfacet
facet normal 0.0 0.0 1.0
  outer loop
    vertex 347.91430500506505 128.43806057064913 68.038051
    vertex 349.1954592783225 118.70672773051822 68.038051
    vertex 349.1954592783225 128.60672773051823 68.038051
  endloop
endfacet
facet normal 0.0 0.0 1.0
  outer loop
    vertex 349.1954592783225 128.60672773051823 68.038051
    vertex 349.1954592783225 118.70672773051822 68.038051
    vertex 350.47661355158004 118.87539489038734 68.038051
  endloop
endfacet
facet normal 0.0 0.0 1.0
  outer loop
    vertex 349.1954592783225 128.60672773051823 68.038051
    vertex 350.47661355158004 118.87539489038734 68.038051
    vertex 350.47661355158 128.43806057064913 68.038051
  endloop
endfacet
facet normal 0.0 0.0 1.0
  outer loop
    vertex 350.47661355158 128.43806057064913 68.038051
    vertex 350.47661355158004 118.87539489038734 68.038051
    vertex 351.6704592783225 127.94355347925116 68.038051
  endloop
endfacet
facet normal 0.0 0.0 1.0
  outer loop
    vertex 351.6704592783225 127.94355347925116 68.038051
    vertex 350.47661355158004 118.87539489038734 68.038051
    vertex 351.6704592783225 119.36990198178525 68.038051
  endloop
endfacet
facet normal 0.0 0.0 1.0
  outer loop
    vertex 351.6704592783225 127.94355347925116 68.038051
    vertex 351.6704592783225 119.36990198178525 68.038051
    vertex 352.6956378451959 120.1565491636448 68.038051
  endloop
endfacet
facet normal 0.0 0.0 1.0
  outer loop
    vertex 351.6704592783225 127.94355347925116 68.038051
    vertex 352.6956378451959 120.1565491636448 68.038051
    vertex 352.6956378451959 127.15690629739161 68.038051
  endloop
endfacet
facet normal 0.0 0.0 1.0
  outer loop
    vertex 352.6956378451959 127.15690629739161 68.038051
    vertex 352.6956378451959 120.1565491636448 68.038051
    vertex 353.4822850270555 121.1817277305182 68.038051
  endloop
endfacet
facet normal 0.0 0.0 1.0
  outer loop
    vertex 352.6956378451959 127.15690629739161 68.038051
    vertex 353.4822850270555 121.1817277305182 68.038051
    vertex 353.4822850270555 126.13172773051821 68.038051
  endloop
endfacet
facet normal 0.0 0.0 1.0
  outer loop
    vertex 353.4822850270555 126.13172773051821 68.038051
    vertex 353.4822850270555 121.1817277305182 68.038051
    vertex 353.97679211845343 122.37557345726073 68.038051
  endloop
endfacet
facet normal 0.0 0.0 1.0
  outer loop
    vertex 353.4822850270555 126.13172773051821 68.038051
    vertex 353.97679211845343 122.37557345726073 68.038051
    vertex 353.97679211845343 124.93788200377568 68.038051
  endloop
endfacet
facet normal 0.0 0.0 1.0
  outer loop
    vertex 353.97679211845343 124.93788200377568 68.038051
    vertex 353.97679211845343 122.37557345726073 68.038051
    vertex 354.1454592783225 123.65672773051823 68.038051
  endloop
endfacet
facet normal 0.9914448613738102 -0.13052619222005343 0.0
  outer loop
    vertex 354.1454592783225 123.65672773051823 58.038050999999996
    vertex 353.97679211845343 122.37557345726073 68.038051
    vertex 353.97679211845343 122.37557345726073 58.038050999999996
  endloop
endfacet
facet normal 0.9914448613738102 -0.13052619222005343 0.0
  outer loop
    vertex 353.97679211845343 122.37557345726073 68.038051
    vertex 354.1454592783225 123.65672773051823 58.038050999999996
    vertex 354.1454592783225 123.65672773051823 68.038051
  endloop
endfacet
facet normal 0.9914448613738102 0.13052619222005343 0.0
  outer loop
    vertex 353.97679211845343 124.93788200377568 58.038050999999996
    vertex 354.1454592783225 123.65672773051823 68.038051
    vertex 354.1454592783225 123.65672773051823 58.038050999999996
  endloop
endfacet
facet normal 0.9914448613738102 0.13052619222005343 0.0
  outer loop
    vertex 354.1454592783225 123.65672773051823 68.038051
    vertex 353.97679211845343 124.93788200377568 58.038050999999996
    vertex 353.97679211845343 124.93788200377568 68.038051
  endloop
endfacet
facet normal 0.9238795325112907 0.38268343236508046 0.0
  outer loop
    vertex 353.4822850270555 126.13172773051821 58.038050999999996
    vertex 353.97679211845343 124.93788200377568 68.038051
    vertex 353.97679211845343 124.93788200377568 58.038050999999996
  endloop
endfacet
facet normal 0.9238795325112907 0.38268343236508046 0.0
  outer loop
    vertex 353.97679211845343 124.93788200377568 68.038051
    vertex 353.4822850270555 126.13172773051821 58.038050999999996
    vertex 353.4822850270555 126.13172773051821 68.038051
  endloop
endfacet
facet normal 0.7933533402912228 0.6087614290087368 0.0
  outer loop
    vertex 352.6956378451959 127.15690629739161 58.038050999999996
    vertex 353.4822850270555 126.13172773051821 68.038051
    vertex 353.4822850270555 126.13172773051821 58.038050999999996
  endloop
endfacet
facet normal 0.7933533402912228 0.6087614290087368 0.0
  outer loop
    vertex 353.4822850270555 126.13172773051821 68.038051
    vertex 352.6956378451959 127.15690629739161 58.038050999999996
    vertex 352.6956378451959 127.15690629739161 68.038051
  endloop
endfacet
facet normal 0.6087614290087148 0.7933533402912398 0.0
  outer loop
    vertex 351.6704592783225 127.94355347925116 68.038051
    vertex 352.6956378451959 127.15690629739161 58.038050999999996
    vertex 351.6704592783225 127.94355347925116 58.038050999999996
  endloop
endfacet
facet normal 0.6087614290087148 0.7933533402912398 0.0
  outer loop
    vertex 352.6956378451959 127.15690629739161 58.038050999999996
    vertex 351.6704592783225 127.94355347925116 68.038051
    vertex 352.6956378451959 127.15690629739161 68.038051
  endloop
endfacet
facet normal 0.3826834323650953 0.9238795325112845 0.0
  outer loop
    vertex 350.47661355158 128.43806057064913 68.038051
    vertex 351.6704592783225 127.94355347925116 58.038050999999996
    vertex 350.47661355158 128.43806057064913 58.038050999999996
  endloop
endfacet
facet normal 0.3826834323650953 0.9238795325112845 0.0
  outer loop
    vertex 351.6704592783225 127.94355347925116 58.038050999999996
    vertex 350.47661355158 128.43806057064913 68.038051
    vertex 351.6704592783225 127.94355347925116 68.038051
  endloop
endfacet
facet normal 0.1305261922200557 0.99144486137381 0.0
  outer loop
    vertex 349.1954592783225 128.60672773051823 68.038051
    vertex 350.47661355158 128.43806057064913 58.038050999999996
    vertex 349.1954592783225 128.60672773051823 58.038050999999996
  endloop
endfacet
facet normal 0.1305261922200557 0.99144486137381 0.0
  outer loop
    vertex 350.47661355158 128.43806057064913 58.038050999999996
    vertex 349.1954592783225 128.60672773051823 68.038051
    vertex 350.47661355158 128.43806057064913 68.038051
  endloop
endfacet
facet normal -0.13052619222005118 0.9914448613738106 0.0
  outer loop
    vertex 347.91430500506505 128.43806057064913 68.038051
    vertex 349.1954592783225 128.60672773051823 58.038050999999996
    vertex 347.91430500506505 128.43806057064913 58.038050999999996
  endloop
endfacet
facet normal -0.13052619222005118 0.9914448613738106 0.0
  outer loop
    vertex 349.1954592783225 128.60672773051823 58.038050999999996
    vertex 347.91430500506505 128.43806057064913 68.038051
    vertex 349.1954592783225 128.60672773051823 68.038051
  endloop
endfacet
facet normal -0.3826834323650953 0.9238795325112845 0.0
  outer loop
    vertex 346.7204592783225 127.94355347925116 68.038051
    vertex 347.91430500506505 128.43806057064913 58.038050999999996
    vertex 346.7204592783225 127.94355347925116 58.038050999999996
  endloop
endfacet
facet normal -0.3826834323650953 0.9238795325112845 0.0
  outer loop
    vertex 347.91430500506505 128.43806057064913 58.038050999999996
    vertex 346.7204592783225 127.94355347925116 68.038051
    vertex 347.91430500506505 128.43806057064913 68.038051
  endloop
endfacet
facet normal -0.6087614290087316 0.7933533402912268 0.0
  outer loop
    vertex 345.69528071144913 127.15690629739161 68.038051
    vertex 346.7204592783225 127.94355347925116 58.038050999999996
    vertex 345.69528071144913 127.15690629739161 58.038050999999996
  endloop
endfacet
facet normal -0.6087614290087316 0.7933533402912268 0.0
  outer loop
    vertex 346.7204592783225 127.94355347925116 58.038050999999996
    vertex 345.69528071144913 127.15690629739161 68.038051
    vertex 346.7204592783225 127.94355347925116 68.038051
  endloop
endfacet
facet normal -0.7933533402912228 0.6087614290087368 0.0
  outer loop
    vertex 345.69528071144913 127.15690629739161 68.038051
    vertex 344.9086335295895 126.13172773051821 58.038050999999996
    vertex 344.9086335295895 126.13172773051821 68.038051
  endloop
endfacet
facet normal -0.7933533402912228 0.6087614290087368 0.0
  outer loop
    vertex 344.9086335295895 126.13172773051821 58.038050999999996
    vertex 345.69528071144913 127.15690629739161 68.038051
    vertex 345.69528071144913 127.15690629739161 58.038050999999996
  endloop
endfacet
facet normal -0.9238795325112907 0.38268343236508046 0.0
  outer loop
    vertex 344.9086335295895 126.13172773051821 68.038051
    vertex 344.41412643819166 124.93788200377568 58.038050999999996
    vertex 344.41412643819166 124.93788200377568 68.038051
  endloop
endfacet
facet normal -0.9238795325112907 0.38268343236508046 0.0
  outer loop
    vertex 344.41412643819166 124.93788200377568 58.038050999999996
    vertex 344.9086335295895 126.13172773051821 68.038051
    vertex 344.9086335295895 126.13172773051821 58.038050999999996
  endloop
endfacet
facet normal -0.9914448613738102 0.13052619222005343 0.0
  outer loop
    vertex 344.41412643819166 124.93788200377568 68.038051
    vertex 344.2454592783225 123.65672773051823 58.038050999999996
    vertex 344.2454592783225 123.65672773051823 68.038051
  endloop
endfacet
facet normal -0.9914448613738102 0.13052619222005343 0.0
  outer loop
    vertex 344.2454592783225 123.65672773051823 58.038050999999996
    vertex 344.41412643819166 124.93788200377568 68.038051
    vertex 344.41412643819166 124.93788200377568 58.038050999999996
  endloop
endfacet
facet normal -0.9914448613738102 -0.13052619222005343 -0.0
  outer loop
    vertex 344.2454592783225 123.65672773051823 68.038051
    vertex 344.41412643819166 122.37557345726073 58.038050999999996
    vertex 344.41412643819166 122.37557345726073 68.038051
  endloop
endfacet
facet normal -0.9914448613738102 -0.13052619222005343 -0.0
  outer loop
    vertex 344.41412643819166 122.37557345726073 58.038050999999996
    vertex 344.2454592783225 123.65672773051823 68.038051
    vertex 344.2454592783225 123.65672773051823 58.038050999999996
  endloop
endfacet
facet normal -0.9238795325112907 -0.38268343236508046 -0.0
  outer loop
    vertex 344.41412643819166 122.37557345726073 68.038051
    vertex 344.9086335295895 121.1817277305182 58.038050999999996
    vertex 344.9086335295895 121.1817277305182 68.038051
  endloop
endfacet
facet normal -0.9238795325112907 -0.38268343236508046 -0.0
  outer loop
    vertex 344.9086335295895 121.1817277305182 58.038050999999996
    vertex 344.41412643819166 122.37557345726073 68.038051
    vertex 344.41412643819166 122.37557345726073 58.038050999999996
  endloop
endfacet
facet normal -0.7933533402912228 -0.6087614290087368 -0.0
  outer loop
    vertex 344.9086335295895 121.1817277305182 68.038051
    vertex 345.69528071144913 120.1565491636448 58.038050999999996
    vertex 345.69528071144913 120.1565491636448 68.038051
  endloop
endfacet
facet normal -0.7933533402912228 -0.6087614290087368 -0.0
  outer loop
    vertex 345.69528071144913 120.1565491636448 58.038050999999996
    vertex 344.9086335295895 121.1817277305182 68.038051
    vertex 344.9086335295895 121.1817277305182 58.038050999999996
  endloop
endfacet
facet normal -0.6087614290087148 -0.7933533402912398 -0.0
  outer loop
    vertex 346.72045927832255 119.36990198178525 68.038051
    vertex 345.69528071144913 120.1565491636448 58.038050999999996
    vertex 346.72045927832255 119.36990198178525 58.038050999999996
  endloop
endfacet
facet normal -0.6087614290087148 -0.7933533402912398 -0.0
  outer loop
    vertex 345.69528071144913 120.1565491636448 58.038050999999996
    vertex 346.72045927832255 119.36990198178525 68.038051
    vertex 345.69528071144913 120.1565491636448 68.038051
  endloop
endfacet
facet normal -0.3826834323651077 -0.9238795325112795 -0.0
  outer loop
    vertex 347.91430500506505 118.87539489038734 68.038051
    vertex 346.72045927832255 119.36990198178525 58.038050999999996
    vertex 347.91430500506505 118.87539489038734 58.038050999999996
  endloop
endfacet
facet normal -0.3826834323651077 -0.9238795325112795 -0.0
  outer loop
    vertex 346.72045927832255 119.36990198178525 58.038050999999996
    vertex 347.91430500506505 118.87539489038734 68.038051
    vertex 346.72045927832255 119.36990198178525 68.038051
  endloop
endfacet
facet normal -0.13052619222005118 -0.9914448613738106 -0.0
  outer loop
    vertex 349.1954592783225 118.70672773051822 68.038051
    vertex 347.91430500506505 118.87539489038734 58.038050999999996
    vertex 349.1954592783225 118.70672773051822 58.038050999999996
  endloop
endfacet
facet normal -0.13052619222005118 -0.9914448613738106 -0.0
  outer loop
    vertex 347.91430500506505 118.87539489038734 58.038050999999996
    vertex 349.1954592783225 118.70672773051822 68.038051
    vertex 347.91430500506505 118.87539489038734 68.038051
  endloop
endfacet
facet normal 0.13052619222005118 -0.9914448613738106 0.0
  outer loop
    vertex 350.47661355158004 118.87539489038734 68.038051
    vertex 349.1954592783225 118.70672773051822 58.038050999999996
    vertex 350.47661355158004 118.87539489038734 58.038050999999996
  endloop
endfacet
facet normal 0.13052619222005118 -0.9914448613738106 0.0
  outer loop
    vertex 349.1954592783225 118.70672773051822 58.038050999999996
    vertex 350.47661355158004 118.87539489038734 68.038051
    vertex 349.1954592783225 118.70672773051822 68.038051
  endloop
endfacet
facet normal 0.3826834323651077 -0.9238795325112795 0.0
  outer loop
    vertex 351.6704592783225 119.36990198178525 68.038051
    vertex 350.47661355158004 118.87539489038734 58.038050999999996
    vertex 351.6704592783225 119.36990198178525 58.038050999999996
  endloop
endfacet
facet normal 0.3826834323651077 -0.9238795325112795 0.0
  outer loop
    vertex 350.47661355158004 118.87539489038734 58.038050999999996
    vertex 351.6704592783225 119.36990198178525 68.038051
    vertex 350.47661355158004 118.87539489038734 68.038051
  endloop
endfacet
facet normal 0.6087614290087148 -0.7933533402912398 0.0
  outer loop
    vertex 352.6956378451959 120.1565491636448 68.038051
    vertex 351.6704592783225 119.36990198178525 58.038050999999996
    vertex 352.6956378451959 120.1565491636448 58.038050999999996
  endloop
endfacet
facet normal 0.6087614290087148 -0.7933533402912398 0.0
  outer loop
    vertex 351.6704592783225 119.36990198178525 58.038050999999996
    vertex 352.6956378451959 120.1565491636448 68.038051
    vertex 351.6704592783225 119.36990198178525 68.038051
  endloop
endfacet
facet normal 0.7933533402912228 -0.6087614290087368 0.0
  outer loop
    vertex 353.4822850270555 121.1817277305182 58.038050999999996
    vertex 352.6956378451959 120.1565491636448 68.038051
    vertex 352.6956378451959 120.1565491636448 58.038050999999996
  endloop
endfacet
facet normal 0.7933533402912228 -0.6087614290087368 0.0
  outer loop
    vertex 352.6956378451959 120.1565491636448 68.038051
    vertex 353.4822850270555 121.1817277305182 58.038050999999996
    vertex 353.4822850270555 121.1817277305182 68.038051
  endloop
endfacet
facet normal 0.9238795325112907 -0.38268343236508046 0.0
  outer loop
    vertex 353.97679211845343 122.37557345726073 58.038050999999996
    vertex 353.4822850270555 121.1817277305182 68.038051
    vertex 353.4822850270555 121.1817277305182 58.038050999999996
  endloop
endfacet
facet normal 0.9238795325112907 -0.38268343236508046 0.0
  outer loop
    vertex 353.4822850270555 121.1817277305182 68.038051
    vertex 353.97679211845343 122.37557345726073 58.038050999999996
    vertex 353.97679211845343 122.37557345726073 68.038051
  endloop
endfacet
endsolid 2-distributor
