solid couverclesucre
facet normal 0.5000000000000152 -0.8660254037844299 3.670674875167035e-15
  outer loop
    vertex 156.65186676508196 89.67431396274091 6.978472000000375
    vertex 107.00816733277703 61.01251073192963 7.978472000000007
    vertex 107.00816733277703 61.01251073192963 6.978472000000009
  endloop
endfacet
facet normal 0.5000000000000152 -0.8660254037844299 3.670674875167035e-15
  outer loop
    vertex 107.00816733277703 61.01251073192963 7.978472000000007
    vertex 156.65186676508196 89.67431396274091 6.978472000000375
    vertex 156.65186676508193 89.67431396274091 7.978472000000372
  endloop
endfacet
facet normal -0.500000000000014 0.8660254037844306 -3.6706748751670256e-15
  outer loop
    vertex 107.00816733277513 178.0996990179197 6.978472000000009
    vertex 55.251387251721795 148.21790810573418 3.9892359999996003
    vertex 55.25138725172177 148.21790810573418 6.97847199999963
  endloop
endfacet
facet normal -0.500000000000014 0.8660254037844306 -3.6706748751670256e-15
  outer loop
    vertex 55.251387251721795 148.21790810573418 3.9892359999996003
    vertex 107.00816733277513 178.0996990179197 6.978472000000009
    vertex 107.00816733277513 178.0996990179197 3.9892359999999805
  endloop
endfacet
facet normal 0.49999999999998496 0.8660254037844473 3.6706748751668126e-15
  outer loop
    vertex 158.76494741382936 148.21790810573597 6.97847200000039
    vertex 107.00816733277513 178.0996990179197 3.9892359999999805
    vertex 107.00816733277513 178.0996990179197 6.978472000000009
  endloop
endfacet
facet normal 0.49999999999998496 0.8660254037844473 3.6706748751668126e-15
  outer loop
    vertex 107.00816733277513 178.0996990179197 3.9892359999999805
    vertex 158.76494741382936 148.21790810573597 6.97847200000039
    vertex 158.7649474138294 148.21790810573597 3.9892360000003606
  endloop
endfacet
facet normal -7.341349750333846e-15 -0.0 1.0
  outer loop
    vertex 156.65186676508193 89.67431396274091 7.978472000000372
    vertex 57.3644679004712 89.67431396273918 7.978471999999644
    vertex 107.00816733277703 61.01251073192963 7.978472000000007
  endloop
endfacet
facet normal -7.341349750333846e-15 -0.0 1.0
  outer loop
    vertex 57.3644679004712 89.67431396273918 7.978471999999644
    vertex 156.65186676508193 89.67431396274091 7.978472000000372
    vertex 57.36446790047018 146.9979204243599 7.978471999999644
  endloop
endfacet
facet normal -7.341349750333846e-15 -0.0 1.0
  outer loop
    vertex 57.36446790047018 146.9979204243599 7.978471999999644
    vertex 156.65186676508193 89.67431396274091 7.978472000000372
    vertex 156.65186676508097 146.9979204243616 7.978472000000372
  endloop
endfacet
facet normal -7.341349750333846e-15 -0.0 1.0
  outer loop
    vertex 57.36446790047018 146.9979204243599 7.978471999999644
    vertex 156.65186676508097 146.9979204243616 7.978472000000372
    vertex 107.00816733277513 175.65972365517115 7.978472000000007
  endloop
endfacet
facet normal 7.341349750333846e-15 0.0 -1.0
  outer loop
    vertex 55.25138725172284 88.45432628136483 3.9892359999996003
    vertex 158.76494741383036 88.45432628136663 3.9892360000003606
    vertex 107.00816733277712 58.5725353691811 3.9892359999999805
  endloop
endfacet
facet normal 7.341349750333846e-15 0.0 -1.0
  outer loop
    vertex 158.76494741383036 88.45432628136663 3.9892360000003606
    vertex 55.25138725172284 88.45432628136483 3.9892359999996003
    vertex 55.251387251721795 148.21790810573418 3.9892359999996003
  endloop
endfacet
facet normal 7.341349750333846e-15 0.0 -1.0
  outer loop
    vertex 158.76494741383036 88.45432628136663 3.9892360000003606
    vertex 55.251387251721795 148.21790810573418 3.9892359999996003
    vertex 158.7649474138294 148.21790810573597 3.9892360000003606
  endloop
endfacet
facet normal 7.341349750333846e-15 0.0 -1.0
  outer loop
    vertex 158.7649474138294 148.21790810573597 3.9892360000003606
    vertex 55.251387251721795 148.21790810573418 3.9892359999996003
    vertex 107.00816733277513 178.0996990179197 3.9892359999999805
  endloop
endfacet
facet normal -7.341349750333846e-15 0.0 1.0
  outer loop
    vertex 158.76494741383033 88.45432628136663 6.97847200000039
    vertex 107.00816733277703 61.01251073192963 6.978472000000009
    vertex 107.00816733277708 58.5725353691811 6.978472000000009
  endloop
endfacet
facet normal -7.341349750333846e-15 0.0 1.0
  outer loop
    vertex 107.00816733277703 61.01251073192963 6.978472000000009
    vertex 158.76494741383033 88.45432628136663 6.97847200000039
    vertex 156.65186676508196 89.67431396274091 6.978472000000375
  endloop
endfacet
facet normal -7.341349750333846e-15 0.0 1.0
  outer loop
    vertex 156.65186676508196 89.67431396274091 6.978472000000375
    vertex 158.76494741383033 88.45432628136663 6.97847200000039
    vertex 158.76494741382936 148.21790810573597 6.97847200000039
  endloop
endfacet
facet normal -7.341349750333846e-15 0.0 1.0
  outer loop
    vertex 156.65186676508196 89.67431396274091 6.978472000000375
    vertex 158.76494741382936 148.21790810573597 6.97847200000039
    vertex 156.651866765081 146.9979204243616 6.978472000000375
  endloop
endfacet
facet normal -7.341349750333846e-15 0.0 1.0
  outer loop
    vertex 156.651866765081 146.9979204243616 6.978472000000375
    vertex 158.76494741382936 148.21790810573597 6.97847200000039
    vertex 107.00816733277516 175.65972365517115 6.978472000000009
  endloop
endfacet
facet normal -7.341349750333846e-15 0.0 1.0
  outer loop
    vertex 107.00816733277516 175.65972365517115 6.978472000000009
    vertex 158.76494741382936 148.21790810573597 6.97847200000039
    vertex 107.00816733277513 178.0996990179197 6.978472000000009
  endloop
endfacet
facet normal -7.341349750333846e-15 0.0 1.0
  outer loop
    vertex 107.00816733277703 61.01251073192963 6.978472000000009
    vertex 55.25138725172282 88.45432628136483 6.97847199999963
    vertex 107.00816733277708 58.5725353691811 6.978472000000009
  endloop
endfacet
facet normal -7.341349750333846e-15 0.0 1.0
  outer loop
    vertex 55.25138725172282 88.45432628136483 6.97847199999963
    vertex 107.00816733277703 61.01251073192963 6.978472000000009
    vertex 57.3644679004712 89.67431396273918 6.978471999999646
  endloop
endfacet
facet normal -7.341349750333846e-15 0.0 1.0
  outer loop
    vertex 55.25138725172282 88.45432628136483 6.97847199999963
    vertex 57.3644679004712 89.67431396273918 6.978471999999646
    vertex 55.25138725172177 148.21790810573418 6.97847199999963
  endloop
endfacet
facet normal -7.341349750333846e-15 0.0 1.0
  outer loop
    vertex 55.25138725172177 148.21790810573418 6.97847199999963
    vertex 57.3644679004712 89.67431396273918 6.978471999999646
    vertex 57.364467900470196 146.9979204243599 6.978471999999646
  endloop
endfacet
facet normal -7.341349750333846e-15 0.0 1.0
  outer loop
    vertex 55.25138725172177 148.21790810573418 6.97847199999963
    vertex 57.364467900470196 146.9979204243599 6.978471999999646
    vertex 107.00816733277516 175.65972365517115 6.978472000000009
  endloop
endfacet
facet normal -7.341349750333846e-15 0.0 1.0
  outer loop
    vertex 55.25138725172177 148.21790810573418 6.97847199999963
    vertex 107.00816733277516 175.65972365517115 6.978472000000009
    vertex 107.00816733277513 178.0996990179197 6.978472000000009
  endloop
endfacet
facet normal 0.5000000000000145 -0.8660254037844302 3.67067487516703e-15
  outer loop
    vertex 158.76494741383036 88.45432628136663 3.9892360000003606
    vertex 107.00816733277708 58.5725353691811 6.978472000000009
    vertex 107.00816733277712 58.5725353691811 3.9892359999999805
  endloop
endfacet
facet normal 0.5000000000000145 -0.8660254037844302 3.67067487516703e-15
  outer loop
    vertex 107.00816733277708 58.5725353691811 6.978472000000009
    vertex 158.76494741383036 88.45432628136663 3.9892360000003606
    vertex 158.76494741383033 88.45432628136663 6.97847200000039
  endloop
endfacet
facet normal -0.4999999999999849 -0.8660254037844476 -3.670674875166812e-15
  outer loop
    vertex 107.00816733277712 58.5725353691811 3.9892359999999805
    vertex 55.25138725172282 88.45432628136483 6.97847199999963
    vertex 55.25138725172284 88.45432628136483 3.9892359999996003
  endloop
endfacet
facet normal -0.4999999999999849 -0.8660254037844476 -3.670674875166812e-15
  outer loop
    vertex 55.25138725172282 88.45432628136483 6.97847199999963
    vertex 107.00816733277712 58.5725353691811 3.9892359999999805
    vertex 107.00816733277708 58.5725353691811 6.978472000000009
  endloop
endfacet
facet normal 1.0 1.6445178552260185e-14 7.341349750333846e-15
  outer loop
    vertex 158.76494741383036 88.45432628136663 3.9892360000003606
    vertex 158.76494741382936 148.21790810573597 6.97847200000039
    vertex 158.76494741383033 88.45432628136663 6.97847200000039
  endloop
endfacet
facet normal 1.0 1.6445178552260185e-14 7.341349750333846e-15
  outer loop
    vertex 158.76494741382936 148.21790810573597 6.97847200000039
    vertex 158.76494741383036 88.45432628136663 3.9892360000003606
    vertex 158.7649474138294 148.21790810573597 3.9892360000003606
  endloop
endfacet
facet normal -1.0 -1.7577627336538917e-14 -7.341349750333846e-15
  outer loop
    vertex 55.251387251721795 148.21790810573418 3.9892359999996003
    vertex 55.25138725172282 88.45432628136483 6.97847199999963
    vertex 55.25138725172177 148.21790810573418 6.97847199999963
  endloop
endfacet
facet normal -1.0 -1.7577627336538917e-14 -7.341349750333846e-15
  outer loop
    vertex 55.25138725172282 88.45432628136483 6.97847199999963
    vertex 55.251387251721795 148.21790810573418 3.9892359999996003
    vertex 55.25138725172284 88.45432628136483 3.9892359999996003
  endloop
endfacet
facet normal -0.5000000000000147 0.8660254037844302 -3.670674875167031e-15
  outer loop
    vertex 107.00816733277513 175.65972365517115 7.978472000000007
    vertex 57.364467900470196 146.9979204243599 6.978471999999646
    vertex 57.36446790047018 146.9979204243599 7.978471999999644
  endloop
endfacet
facet normal -0.5000000000000147 0.8660254037844302 -3.670674875167031e-15
  outer loop
    vertex 57.364467900470196 146.9979204243599 6.978471999999646
    vertex 107.00816733277513 175.65972365517115 7.978472000000007
    vertex 107.00816733277516 175.65972365517115 6.978472000000009
  endloop
endfacet
facet normal 0.4999999999999855 0.866025403784447 3.6706748751668165e-15
  outer loop
    vertex 156.65186676508097 146.9979204243616 7.978472000000372
    vertex 107.00816733277516 175.65972365517115 6.978472000000009
    vertex 107.00816733277513 175.65972365517115 7.978472000000007
  endloop
endfacet
facet normal 0.4999999999999855 0.866025403784447 3.6706748751668165e-15
  outer loop
    vertex 107.00816733277516 175.65972365517115 6.978472000000009
    vertex 156.65186676508097 146.9979204243616 7.978472000000372
    vertex 156.651866765081 146.9979204243616 6.978472000000375
  endloop
endfacet
facet normal -0.4999999999999855 -0.866025403784447 -3.6706748751668165e-15
  outer loop
    vertex 107.00816733277703 61.01251073192963 6.978472000000009
    vertex 57.3644679004712 89.67431396273918 7.978471999999644
    vertex 57.3644679004712 89.67431396273918 6.978471999999646
  endloop
endfacet
facet normal -0.4999999999999855 -0.866025403784447 -3.6706748751668165e-15
  outer loop
    vertex 57.3644679004712 89.67431396273918 7.978471999999644
    vertex 107.00816733277703 61.01251073192963 6.978472000000009
    vertex 107.00816733277703 61.01251073192963 7.978472000000007
  endloop
endfacet
facet normal 1.0 1.6445178552260185e-14 7.341349750333846e-15
  outer loop
    vertex 156.65186676508196 89.67431396274091 6.978472000000375
    vertex 156.65186676508097 146.9979204243616 7.978472000000372
    vertex 156.65186676508193 89.67431396274091 7.978472000000372
  endloop
endfacet
facet normal 1.0 1.6445178552260185e-14 7.341349750333846e-15
  outer loop
    vertex 156.65186676508097 146.9979204243616 7.978472000000372
    vertex 156.65186676508196 89.67431396274091 6.978472000000375
    vertex 156.651866765081 146.9979204243616 6.978472000000375
  endloop
endfacet
facet normal -1.0 -1.7625829941081335e-14 -7.341349750333846e-15
  outer loop
    vertex 57.364467900470196 146.9979204243599 6.978471999999646
    vertex 57.3644679004712 89.67431396273918 7.978471999999644
    vertex 57.36446790047018 146.9979204243599 7.978471999999644
  endloop
endfacet
facet normal -1.0 -1.7625829941081335e-14 -7.341349750333846e-15
  outer loop
    vertex 57.3644679004712 89.67431396273918 7.978471999999644
    vertex 57.364467900470196 146.9979204243599 6.978471999999646
    vertex 57.3644679004712 89.67431396273918 6.978471999999646
  endloop
endfacet
endsolid couverclesucre
